<?xml version="1.0" encoding="utf-8"?>
<!-- Generator: Adobe Illustrator 24.3.0, SVG Export Plug-In . SVG Version: 6.00 Build 0)  -->
<svg version="1.1" id="Layer_1" xmlns="http://www.w3.org/2000/svg" xmlns:xlink="http://www.w3.org/1999/xlink" x="0px" y="0px"
	 viewBox="0 0 100.5 100.5" style="enable-background:new 0 0 100.5 100.5;" xml:space="preserve">
<style type="text/css">
	.st0{fill:#EF383C;}
	.st1{fill:#FFFFFF;}
</style>
<g>
	<path class="st0" d="M100.25,50.25L100.25,50.25c0,27.61-22.39,50-50,50l0,0c-27.61,0-50-22.39-50-50l0,0c0-27.61,22.39-50,50-50
		l0,0C77.86,0.25,100.25,22.64,100.25,50.25z"/>
	<g>
		<g>
			<path class="st1" d="M55.57,75.45H23.59V23.39h50.72v29.99c1.11,0.23,2.18,0.57,3.2,1.01V20.11H20.39v58.62h36.88
				C56.58,77.71,56.01,76.61,55.57,75.45z"/>
		</g>
		<path class="st1" d="M70.97,54.7c-8.2,0-14.85,6.65-14.85,14.85S62.77,84.4,70.97,84.4s14.85-6.65,14.85-14.85
			S79.17,54.7,70.97,54.7z M70.97,80.9c-6.27,0-11.36-5.08-11.36-11.36c0-6.27,5.08-11.36,11.36-11.36
			c6.27,0,11.36,5.08,11.36,11.36S77.25,80.9,70.97,80.9z"/>
		<g>
			<rect x="26.73" y="34.72" class="st1" width="44.24" height="3.31"/>
			<rect x="26.73" y="28.2" class="st1" width="44.24" height="3.31"/>
			<rect x="26.73" y="41.24" class="st1" width="44.24" height="3.31"/>
			<rect x="26.73" y="47.77" class="st1" width="44.24" height="3.31"/>
			<path class="st1" d="M56.98,60.81H26.73v3.31h28.66C55.8,62.95,56.34,61.84,56.98,60.81z"/>
			<path class="st1" d="M54.47,69.55c0-0.75,0.06-1.49,0.15-2.21H26.73v3.31h27.78C54.49,70.28,54.47,69.92,54.47,69.55z"/>
			<path class="st1" d="M64.7,54.29H26.73v3.31h32.88C61.08,56.2,62.8,55.07,64.7,54.29z"/>
		</g>
		<g>
			<path class="st1" d="M66.08,74.21l0.91-1.61c0.19-0.34,0.51-0.49,0.81-0.28c0.06,0.04,1.36,0.91,2.46,1.27l0.02-3.44
				c-1.85-0.74-4.31-2.25-4.31-4.77c0-2.12,1.51-3.93,4.33-4.2V60.5c0-0.23,0.19-0.4,0.4-0.4h0.36c0.21,0,0.4,0.17,0.4,0.4v0.7
				c1.91,0.17,3.37,1.12,3.95,1.55c0.25,0.15,0.21,0.53,0.13,0.68l-1.23,1.78c-0.17,0.23-0.4,0.25-0.57,0.13
				c-0.15-0.06-1.27-0.85-2.27-1.25v2.99c1.65,0.66,4.5,2.08,4.5,4.97c0,2.19-1.74,4.12-4.54,4.37v2.21c0,0.21-0.19,0.38-0.4,0.38
				h-0.36c-0.21,0-0.4-0.17-0.4-0.38v-2.21c-2.33-0.17-3.63-1.17-4.07-1.61C65.97,74.59,65.89,74.5,66.08,74.21z M70.22,63.81
				c-0.68,0.09-1.17,0.57-1.17,1.1c0,0.62,0.32,1.15,1.17,1.65V63.81z M72.61,72.47c0-0.66-0.38-1.27-1.12-1.78v3.1
				C72.15,73.61,72.61,73.13,72.61,72.47z"/>
		</g>
	</g>
</g>
</svg>
