<?xml version="1.0" encoding="utf-8"?>
<!-- Generator: Adobe Illustrator 24.3.0, SVG Export Plug-In . SVG Version: 6.00 Build 0)  -->
<svg version="1.1" id="Layer_1" xmlns="http://www.w3.org/2000/svg" xmlns:xlink="http://www.w3.org/1999/xlink" x="0px" y="0px"
	 viewBox="0 0 100.5 100.5" style="enable-background:new 0 0 100.5 100.5;" xml:space="preserve">
<style type="text/css">
	.st0{fill:#9D071C;}
	.st1{fill:#FFFFFF;}
</style>
<g>
	<path class="st0" d="M100.2,50.2L100.2,50.2c0,27.6-22.4,50-50,50l0,0c-27.6,0-50-22.4-50-50l0,0c0-27.6,22.4-50,50-50l0,0
		C77.9,0.2,100.2,22.6,100.2,50.2z"/>
	<g>
		<g>
			<path class="st1" d="M55.6,75.4h-32V23.4h50.7v30c1.1,0.2,2.2,0.6,3.2,1V20.1H20.4v58.6h36.9C56.6,77.7,56,76.6,55.6,75.4z"/>
		</g>
		<path class="st1" d="M71,54.7c-8.2,0-14.8,6.7-14.8,14.9S62.8,84.4,71,84.4s14.8-6.7,14.8-14.8S79.2,54.7,71,54.7z M71,80.9
			c-6.3,0-11.4-5.1-11.4-11.4c0-6.3,5.1-11.4,11.4-11.4c6.3,0,11.4,5.1,11.4,11.4S77.2,80.9,71,80.9z"/>
		<g>
			<rect x="26.7" y="34.7" class="st1" width="44.2" height="3.3"/>
			<rect x="26.7" y="28.2" class="st1" width="44.2" height="3.3"/>
			<rect x="26.7" y="41.2" class="st1" width="44.2" height="3.3"/>
			<rect x="26.7" y="47.8" class="st1" width="44.2" height="3.3"/>
			<path class="st1" d="M57,60.8H26.7v3.3h28.7C55.8,63,56.3,61.8,57,60.8z"/>
			<path class="st1" d="M54.5,69.6c0-0.8,0.1-1.5,0.2-2.2H26.7v3.3h27.8C54.5,70.3,54.5,69.9,54.5,69.6z"/>
			<path class="st1" d="M64.7,54.3h-38v3.3h32.9C61.1,56.2,62.8,55.1,64.7,54.3z"/>
		</g>
		<g>
			<path class="st1" d="M66.1,74.2l0.9-1.6c0.2-0.3,0.5-0.5,0.8-0.3c0.1,0,1.4,0.9,2.5,1.3l0-3.4c-1.8-0.7-4.3-2.2-4.3-4.8
				c0-2.1,1.5-3.9,4.3-4.2v-0.7c0-0.2,0.2-0.4,0.4-0.4h0.4c0.2,0,0.4,0.2,0.4,0.4v0.7c1.9,0.2,3.4,1.1,3.9,1.5
				c0.2,0.2,0.2,0.5,0.1,0.7l-1.2,1.8c-0.2,0.2-0.4,0.2-0.6,0.1c-0.2-0.1-1.3-0.8-2.3-1.2v3c1.7,0.7,4.5,2.1,4.5,5
				c0,2.2-1.7,4.1-4.5,4.4v2.2c0,0.2-0.2,0.4-0.4,0.4h-0.4c-0.2,0-0.4-0.2-0.4-0.4v-2.2c-2.3-0.2-3.6-1.2-4.1-1.6
				C66,74.6,65.9,74.5,66.1,74.2z M70.2,63.8c-0.7,0.1-1.2,0.6-1.2,1.1c0,0.6,0.3,1.2,1.2,1.7V63.8z M72.6,72.5
				c0-0.7-0.4-1.3-1.1-1.8v3.1C72.2,73.6,72.6,73.1,72.6,72.5z"/>
		</g>
	</g>
</g>
</svg>
