<?xml version="1.0" encoding="utf-8"?>
<!-- Generator: Adobe Illustrator 24.3.0, SVG Export Plug-In . SVG Version: 6.00 Build 0)  -->
<svg version="1.1" id="Layer_1" xmlns="http://www.w3.org/2000/svg" xmlns:xlink="http://www.w3.org/1999/xlink" x="0px" y="0px"
	 viewBox="0 0 618.47 613.76" style="enable-background:new 0 0 618.47 613.76;" xml:space="preserve">
<style type="text/css">
	.st0{opacity:0.57;fill:#FFFFFF;}
	.st1{fill:#BF2333;}
	.st2{fill:#223164;}
	.st3{fill:none;}
	.st4{fill-rule:evenodd;clip-rule:evenodd;fill:#BF2333;}
</style>
<g>
	<circle class="st0" cx="309.24" cy="306.88" r="300"/>
	<g>
		<path class="st1" d="M560.3,308.51c-3,0.12-5.45,0.28-7.84,0.56l-0.19-4.68l4.78-0.5l0-0.12c-2.82-1.33-5.65-4.57-5.85-9.37
			c-0.17-4.02,1.98-10.35,11.93-10.76l17.33-0.71l0.22,5.28l-16.73,0.69c-4.68,0.19-8.5,2.09-8.3,7.07
			c0.14,3.48,2.71,6.07,5.69,6.85c0.67,0.21,1.57,0.3,2.47,0.26l17.45-0.71l0.22,5.28L560.3,308.51z"/>
		<path class="st1" d="M566.49,319.94c10.68,1.12,14.56,9.01,13.83,15.99c-0.82,7.82-7.18,13.24-16.31,12.29
			c-9.67-1.01-14.67-7.93-13.84-15.93C551.04,323.99,557.65,319.01,566.49,319.94z M564.38,342.88c6.33,0.66,11.48-2.48,12.02-7.61
			c0.53-5.01-3.79-9.27-10.3-9.95c-4.89-0.51-11.36,1.28-12.01,7.49C553.44,339.02,558.89,342.31,564.38,342.88z"/>
		<path class="st1" d="M538.12,358.56l8.13,1.85l1.68-7.37l3.92,0.89l-1.68,7.37l15.27,3.47c3.51,0.8,5.73,0.26,6.38-2.61
			c0.31-1.35,0.36-2.38,0.33-3.06l3.91,0.64c0.18,1.09,0.12,2.73-0.34,4.72c-0.54,2.4-1.75,4.16-3.43,5.07
			c-1.85,1.12-4.49,1.07-7.82,0.31l-15.44-3.51l-1,4.39l-3.92-0.89l1-4.39l-6.79-1.54L538.12,358.56z"/>
		<path class="st1" d="M559.32,399.85c1.46-1.16,3.36-3.43,4.2-5.93c1.22-3.64-0.03-5.96-2.3-6.72c-2.39-0.8-4.17,0.18-6.78,3.42
			c-3.42,4.36-6.94,5.77-10.23,4.67c-4.44-1.49-6.88-6.29-4.89-12.21c0.93-2.79,2.55-4.97,3.98-6.2l3.22,2.47
			c-1.04,0.85-2.62,2.54-3.48,5.1c-0.99,2.96,0.16,5.18,2.21,5.87c2.28,0.76,3.85-0.54,6.42-3.67c3.42-4.17,6.63-5.81,10.73-4.44
			c4.83,1.62,6.99,6.52,4.8,13.06c-1.01,3.02-2.68,5.55-4.47,7.11L559.32,399.85z"/>
		<path class="st1" d="M552.06,411.65c2.7,1.31,5.1,2.41,7.23,3.24l-2.04,4.21l-4.4-1.8l-0.05,0.11c1.5,2.26,2.92,6.35,0.67,10.99
			c-1.99,4.1-6.64,7.92-15.82,3.46l-15.28-7.41l2.3-4.75l14.47,7.02c4.97,2.41,9.05,2.52,11.14-1.8c1.54-3.19,0.41-6.47-1.28-8.36
			c-0.57-0.61-1.36-1.19-2.22-1.61l-16.03-7.78l2.3-4.75L552.06,411.65z"/>
		<path class="st1" d="M529.56,440.74c8.88,6.05,8.55,14.83,4.6,20.63c-4.43,6.5-12.6,8.26-20.19,3.09
			c-8.03-5.48-9.16-13.94-4.63-20.58C514.03,436.99,522.22,435.74,529.56,440.74z M516.83,459.95c5.26,3.58,11.28,3.26,14.19-1
			c2.84-4.16,1.05-9.96-4.35-13.64c-4.07-2.77-10.61-4.25-14.12,0.9C509.03,451.36,512.27,456.84,516.83,459.95z"/>
		<path class="st1" d="M470.29,474.08l12.29,11.63l13.44-14.21l-12.29-11.63l3.63-3.84l29.38,27.79l-3.63,3.84l-13.78-13.03
			l-13.44,14.21l13.78,13.03l-3.59,3.79l-29.38-27.79L470.29,474.08z"/>
		<path class="st1" d="M450.87,516.16c-1.99-2.78-3.76-5.13-5.48-7.22l3.75-2.69l3.47,4.53l0.2-0.14c-1.2-3.94-0.05-7.79,2.82-9.86
			c0.49-0.35,0.86-0.55,1.32-0.73l2.9,4.05c-0.51,0.22-0.98,0.48-1.57,0.9c-3.02,2.17-3.52,6-1.8,9.64
			c0.32,0.66,0.71,1.41,1.24,2.14l9.03,12.58l-4.24,3.04L450.87,516.16z"/>
		<path class="st1" d="M427.7,537.62c3.59,6.17,9.01,6.51,13.62,3.93c3.3-1.85,4.96-3.54,6.28-5.24l2.63,2.86
			c-1.21,1.64-3.52,4.03-7.55,6.29c-7.8,4.37-15.33,1.85-19.61-5.8c-4.28-7.64-3.15-16.19,4.23-20.32
			c8.27-4.63,14.54,1.42,17.15,6.07c0.53,0.94,0.83,1.73,1.04,2.23L427.7,537.62z M439.36,526.76c-1.59-2.96-5.4-6.81-10.58-3.91
			c-4.66,2.61-4.3,8.04-2.88,11.44L439.36,526.76z"/>
		<path class="st1" d="M399.64,524.42l3.23,7.69l6.97-2.93l1.56,3.71l-6.97,2.93l6.06,14.44c1.39,3.32,3.12,4.81,5.83,3.67
			c1.27-0.53,2.14-1.1,2.68-1.52l1.75,3.56c-0.78,0.78-2.16,1.69-4.04,2.48c-2.27,0.95-4.4,1-6.12,0.16
			c-1.99-0.86-3.48-3.03-4.81-6.18l-6.13-14.61l-4.15,1.74l-1.56-3.71l4.15-1.74l-2.69-6.42L399.64,524.42z"/>
		<path class="st1" d="M390.7,567.62l-1.44-3.39l-0.17,0.05c-0.91,2.64-3.33,5.48-7.3,6.65c-5.64,1.66-9.69-1.46-10.88-5.49
			c-1.98-6.73,2.92-12.18,13.7-15.29l-0.17-0.58c-0.68-2.3-2.53-6.26-8.23-4.58c-2.59,0.76-5.06,2.37-6.64,4.21l-2.13-3
			c1.86-2.17,4.91-4.14,8.42-5.17c8.52-2.51,12.3,2.69,13.95,8.28l3.07,10.42c0.71,2.42,1.52,4.74,2.43,6.54L390.7,567.62z
			 M385.77,553.62c-5.56,1.51-11.54,4.34-9.95,9.75c0.97,3.28,3.61,4.19,6.2,3.43c3.63-1.07,5.25-4.05,5.36-6.65
			c0.02-0.57-0.03-1.18-0.19-1.7L385.77,553.62z"/>
		<path class="st1" d="M340.02,564.97c1.21,7.04,6.17,9.25,11.39,8.44c3.74-0.58,5.89-1.58,7.71-2.71l1.47,3.6
			c-1.71,1.11-4.71,2.55-9.27,3.26c-8.83,1.37-15.01-3.62-16.35-12.28c-1.34-8.66,2.7-16.27,11.06-17.56
			c9.37-1.45,13.14,6.41,13.95,11.68c0.17,1.07,0.17,1.92,0.2,2.46L340.02,564.97z M354.74,558.87c-0.46-3.33-2.68-8.27-8.55-7.36
			c-5.28,0.82-6.84,6.04-6.69,9.72L354.74,558.87z"/>
		<path class="st1" d="M312.97,560.45c-0.14-3.42-0.33-6.35-0.62-9.04l4.62-0.2l0.42,5.69l0.24-0.01c1.15-3.95,4.23-6.54,7.76-6.69
			c0.6-0.03,1.02,0.02,1.51,0.12l0.21,4.98c-0.54-0.1-1.09-0.13-1.81-0.1c-3.72,0.16-6.24,3.09-6.79,7.07
			c-0.09,0.72-0.17,1.57-0.14,2.47l0.65,15.47l-5.22,0.22L312.97,560.45z"/>
		<path class="st1" d="M299.64,578.99c-2.4,0.63-7.12,1.61-12.56,1.14c-6.1-0.53-10.98-2.52-14.6-6.63
			c-3.18-3.65-4.86-9.21-4.32-15.49c1.1-12.01,10.11-20.08,23.62-18.91c4.66,0.4,8.22,1.74,9.88,2.72l-1.62,4.13
			c-2.07-1.14-4.69-2.15-8.76-2.51c-9.8-0.85-16.73,4.69-17.6,14.79c-0.89,10.22,4.75,16.79,14.13,17.61
			c3.41,0.3,5.78,0.02,7.03-0.47l1.04-12.01l-8.19-0.71l0.36-4.18l13.27,1.15L299.64,578.99z"/>
		<path class="st1" d="M229.68,569.22l6.76-24.09l-3.93-1.1l1.09-3.87l3.93,1.1l0.37-1.33c1.1-3.93,2.98-7.27,5.98-8.85
			c2.43-1.31,5.18-1.35,7.55-0.69c1.79,0.5,3.24,1.34,4.11,2.02l-1.8,3.73c-0.65-0.56-1.61-1.14-3.06-1.54
			c-4.33-1.22-6.5,2.29-7.7,6.56l-0.42,1.5l6.76,1.9l-1.09,3.87l-6.76-1.9l-6.76,24.09L229.68,569.22z"/>
		<path class="st1" d="M222.68,551.86c-4.07,9.94-12.72,11.45-19.22,8.79c-7.27-2.98-10.7-10.6-7.22-19.1
			c3.68-9,11.73-11.86,19.17-8.82C223.11,535.9,226.04,543.65,222.68,551.86z M201.24,543.42c-2.41,5.89-0.84,11.71,3.94,13.67
			c4.66,1.91,9.96-1.05,12.43-7.1c1.86-4.55,1.95-11.26-3.83-13.62C208.01,534,203.33,538.31,201.24,543.42z"/>
		<path class="st1" d="M154.59,527.36c0.75,1.71,2.48,4.12,4.69,5.55c3.22,2.09,5.78,1.46,7.08-0.55c1.37-2.11,0.87-4.09-1.62-7.42
			c-3.36-4.41-3.86-8.16-1.96-11.08c2.55-3.92,7.81-5.08,13.04-1.68c2.47,1.6,4.17,3.71,5.01,5.4l-3.2,2.5
			c-0.56-1.22-1.8-3.17-4.06-4.65c-2.62-1.7-5.06-1.14-6.23,0.67c-1.31,2.01-0.44,3.87,1.95,7.13c3.18,4.36,3.97,7.88,1.61,11.5
			c-2.78,4.28-8.06,5.14-13.85,1.38c-2.67-1.73-4.71-3.99-5.76-6.11L154.59,527.36z"/>
		<path class="st1" d="M134.85,491.39c1.94-2.29,3.49-4.2,4.9-6.15l3.57,3.03l-2.88,3.85l0.09,0.08c2.88-1.17,7.19-1.06,10.85,2.05
			c3.06,2.6,6.27,8.47-0.17,16.06l-11.22,13.22l-4.03-3.42l10.83-12.76c3.03-3.57,4.22-7.67,0.43-10.89
			c-2.65-2.25-6.3-2.12-8.89-0.46c-0.61,0.35-1.28,0.96-1.87,1.64l-11.3,13.31l-4.03-3.42L134.85,491.39z"/>
		<path class="st1" d="M107.36,493.5l2.45-2.75l-0.12-0.13c-2.78,0.31-6.38-0.66-9.14-3.74c-3.92-4.38-2.83-9.38,0.3-12.18
			c5.23-4.68,12.26-2.58,19.69,5.82l0.45-0.4c1.79-1.6,4.57-4.97,0.61-9.4c-1.8-2.01-4.3-3.56-6.65-4.2l1.79-3.21
			c2.76,0.75,5.84,2.67,8.28,5.39c5.92,6.62,2.84,12.27-1.5,16.15l-8.1,7.24c-1.88,1.68-3.63,3.41-4.87,5L107.36,493.5z
			 M117.89,483.04c-3.75-4.38-8.87-8.57-13.07-4.81c-2.55,2.28-2.24,5.06-0.44,7.07c2.52,2.82,5.91,3.01,8.3,2
			c0.52-0.23,1.05-0.54,1.45-0.9L117.89,483.04z"/>
		<path class="st1" d="M84.99,466.13l23.43-17.15l3.12,4.26l-23.43,17.15L84.99,466.13z M118.48,448.9c-1.42,1.11-3.36,0.9-4.6-0.8
			c-1.1-1.5-0.72-3.42,0.74-4.48c1.5-1.1,3.48-0.83,4.61,0.71C120.4,445.94,119.98,447.81,118.48,448.9z"/>
		<path class="st1" d="M79.31,456.38c-1.33-0.82-3.72-2.95-5.72-6.3c-4.49-7.52-2.31-15.46,5.31-20.01
			c7.68-4.58,16.38-2.65,21.24,5.49c1.6,2.68,2.35,5.45,2.47,7.05l-4.12,1.06c-0.03-1.45-0.48-3.49-1.95-5.96
			c-3.42-5.72-9.48-6.29-14.69-3.18c-5.77,3.45-7.11,9.28-4.16,14.22c1.54,2.58,3.22,3.88,4.56,4.83L79.31,456.38z"/>
		<path class="st1" d="M59.22,422.02l26.21-12.5l2.27,4.77l-26.21,12.5L59.22,422.02z M95.32,411.32c-1.6,0.83-3.47,0.26-4.37-1.64
			c-0.8-1.68-0.07-3.49,1.56-4.26c1.68-0.8,3.57-0.17,4.4,1.56C97.76,408.76,97,410.52,95.32,411.32z"/>
		<path class="st1" d="M53.25,392.93c-0.41,1.82-0.46,4.78,0.47,7.25c1.34,3.6,3.77,4.61,6.02,3.77c2.36-0.88,3.13-2.77,3.11-6.93
			c-0.08-5.54,1.75-8.85,5.01-10.07c4.38-1.64,9.31,0.56,11.49,6.41c1.03,2.75,1.14,5.47,0.81,7.32l-4.06,0.11
			c0.28-1.32,0.44-3.62-0.5-6.15c-1.09-2.92-3.39-3.92-5.41-3.17c-2.25,0.84-2.65,2.85-2.68,6.89c-0.04,5.39-1.49,8.69-5.54,10.2
			c-4.78,1.78-9.54-0.67-11.95-7.13c-1.11-2.98-1.41-6.01-1-8.34L53.25,392.93z"/>
		<path class="st1" d="M67.99,357.38l-15.16,10.25c-1.71,1.1-3.75,2.34-5.33,3.22l0.03,0.12c1.82,0.11,4.12,0.17,6.33,0.37
			l17.92,1.55l1.32,5.42l-21.99-2.78c-10.57-1.31-16.14-2.61-20.02-5.36c-2.83-1.97-4.31-4.26-4.86-5.48l4-2.34
			c0.72,1.18,1.95,2.67,3.6,3.88c1.45,1.13,3.86,2.39,6.77,2.92c0.58,0.1,1.03,0.18,1.32,0.11c0.29-0.07,0.67-0.29,1.25-0.68
			l23.45-16.78L67.99,357.38z"/>
		<path class="st1" d="M76.4,318.3l0.54,5.25l-18.03,1.84l0.01,0.12c1.58,0.68,3.03,1.86,4.09,3.38c1.05,1.46,1.84,3.25,2.04,5.22
			c0.4,3.88-1.36,10.33-11.32,11.35l-17.19,1.76l-0.54-5.25l16.59-1.7c4.66-0.48,8.42-2.61,7.91-7.56c-0.35-3.4-3.01-5.84-5.97-6.51
			c-0.75-0.23-1.53-0.21-2.54-0.1l-17.43,1.78l-0.54-5.25L76.4,318.3z"/>
		<path class="st1" d="M74.47,285.49c0.32,2.54,0.54,5.85,0.36,10.04c-0.21,5.16-1.57,8.88-3.83,11.19c-2.01,2.14-5,3.33-8.6,3.19
			c-3.66-0.15-6.49-1.35-8.5-3.48c-2.82-2.88-4.14-7.44-3.92-12.53c0.06-1.56,0.18-3,0.53-4.18l-16.19-0.67l0.22-5.22L74.47,285.49z
			 M54.77,289.9c-0.35,1.13-0.53,2.56-0.6,4.3c-0.26,6.29,2.64,10.26,8.21,10.49c5.34,0.22,8.07-3.45,8.31-9.2
			c0.09-2.28-0.01-4.02-0.22-4.93L54.77,289.9z"/>
	</g>
	<path id="path12313_2_" class="st2" d="M543.71,214.95c-0.89,0-1.6,0.71-1.6,1.6v8.6h-8.6c-0.89,0-1.6,0.71-1.6,1.6v6.4
		c0,0.89,0.71,1.6,1.6,1.6h8.6v8.6c0,0.89,0.71,1.6,1.6,1.6h6.4c0.89,0,1.6-0.71,1.6-1.6v-8.6h8.6c0.89,0,1.6-0.71,1.6-1.6v-6.4
		c0-0.89-0.71-1.6-1.6-1.6h-8.6v-8.6c0-0.89-0.71-1.6-1.6-1.6H543.71z"/>
	<path id="path12313_1_" class="st2" d="M64.91,214.95c-0.89,0-1.6,0.71-1.6,1.6v8.6h-8.6c-0.89,0-1.6,0.71-1.6,1.6v6.4
		c0,0.89,0.71,1.6,1.6,1.6h8.6v8.6c0,0.89,0.71,1.6,1.6,1.6h6.4c0.89,0,1.6-0.71,1.6-1.6v-8.6h8.6c0.89,0,1.6-0.71,1.6-1.6v-6.4
		c0-0.89-0.71-1.6-1.6-1.6h-8.6v-8.6c0-0.89-0.71-1.6-1.6-1.6H64.91z"/>
	<g>
		<g>
			<path class="st2" d="M76.54,159.81c1.87-3.56,4.31-7.63,7.38-11.8c5.56-7.55,11.26-11.64,17.21-12.76
				c5.99-1.18,12.26,0.17,18.84,5.02c6.64,4.89,10.57,10.94,11.52,17.51c1.01,6.61-1.56,14.4-7.39,22.31
				c-2.76,3.75-5.25,6.75-7.51,9.19L76.54,159.81z M116.41,181.05c1.22-1.15,2.7-3.04,4.21-5.09c8.27-11.24,6.47-21.96-4.52-30.05
				c-9.56-7.13-19.66-6.18-27.84,4.94c-2,2.72-3.27,4.95-3.99,6.56L116.41,181.05z"/>
			<path class="st2" d="M131.02,102.41c1.56,1.62,1.54,4.07-0.42,5.82c-1.73,1.55-4.16,1.32-5.66-0.35
				c-1.55-1.73-1.48-4.22,0.31-5.83C127.09,100.4,129.46,100.68,131.02,102.41z M156.64,141.91l-24.27-27l4.91-4.41l24.27,27
				L156.64,141.91z"/>
			<path class="st2" d="M166.72,101.74c-2.35-3.57-4.42-6.6-6.46-9.3l4.83-3.17l4.1,5.83l0.25-0.16c-1.3-4.98,0.34-9.73,4.04-12.16
				c0.63-0.41,1.11-0.64,1.69-0.84l3.42,5.2c-0.65,0.25-1.25,0.55-2,1.05c-3.89,2.55-4.71,7.31-2.75,11.94
				c0.37,0.83,0.82,1.79,1.44,2.74l10.62,16.18l-5.46,3.58L166.72,101.74z"/>
			<path class="st2" d="M208.63,86.9c3.53,8.2,10.2,9.44,16.3,6.93c4.37-1.79,6.69-3.64,8.59-5.55l2.83,3.94
				c-1.75,1.85-4.97,4.47-10.32,6.67c-10.34,4.24-19.3-0.02-23.46-10.15c-4.16-10.13-1.46-20.56,8.32-24.57
				c10.96-4.5,17.83,3.95,20.37,10.12c0.51,1.25,0.77,2.28,0.96,2.93L208.63,86.9z M224.74,75.18c-1.52-3.91-5.67-9.27-12.54-6.45
				c-6.17,2.53-6.55,9.33-5.29,13.77L224.74,75.18z"/>
			<path class="st2" d="M283.98,81.75c-1.54,1.19-5.1,3.03-9.9,3.88c-10.78,1.9-19.09-4.17-21.02-15.1
				c-1.94-11,4.18-20.31,15.85-22.37c3.84-0.68,7.41-0.32,9.34,0.25l-0.59,5.28c-1.71-0.61-4.29-0.99-7.83-0.37
				c-8.2,1.45-11.56,8.29-10.24,15.75c1.46,8.27,7.68,12.43,14.77,11.18c3.69-0.65,5.96-2.04,7.66-3.18L283.98,81.75z"/>
			<path class="st2" d="M314.19,35.5l-0.17,10.42l9.45,0.15l-0.08,5.02l-9.45-0.15l-0.32,19.57c-0.07,4.5,1.16,7.07,4.83,7.13
				c1.72,0.03,3-0.18,3.83-0.39l0.22,4.95c-1.28,0.5-3.31,0.85-5.86,0.8c-3.08-0.05-5.53-1.07-7.08-2.89
				c-1.84-1.98-2.47-5.22-2.4-9.49l0.32-19.8l-5.62-0.09l0.08-5.02l5.62,0.09l0.14-8.7L314.19,35.5z"/>
			<path class="st2" d="M405.36,100.98c-2.67,0.3-7.59-0.23-13.36-2.35c-13.38-4.91-20.34-17.06-14.63-32.62
				c5.45-14.86,19.22-21.23,33.93-15.82c5.91,2.17,9.18,4.81,10.49,6.25l-3.31,4.46c-1.91-1.98-4.91-4.04-8.85-5.49
				c-11.12-4.08-21.13,0.31-25.7,12.77c-4.26,11.62-0.32,21.54,11.23,25.77c3.73,1.37,7.82,1.99,10.72,1.7L405.36,100.98z"/>
			<path class="st2" d="M438.76,123.1l2.07-4.11l-0.19-0.12c-3.26,1.27-7.92,1.26-12.24-1.59c-6.14-4.04-6.43-10.42-3.55-14.81
				c4.82-7.33,13.97-7.06,25.65,0.71l0.41-0.63c1.65-2.51,3.92-7.47-2.28-11.55c-2.82-1.85-6.34-2.91-9.38-2.94l1.14-4.46
				c3.58,0.02,7.91,1.34,11.74,3.86c9.28,6.1,7.37,13.91,3.37,19.99l-7.46,11.34c-1.73,2.63-3.29,5.28-4.28,7.6L438.76,123.1z
				 M448.12,107.08c-5.93-4.08-13.46-7.51-17.34-1.61c-2.35,3.57-1.08,6.83,1.74,8.68c3.95,2.6,8.1,1.74,10.67-0.26
				c0.56-0.44,1.1-0.98,1.47-1.55L448.12,107.08z"/>
			<path class="st2" d="M478.49,123.2c2.98-3.06,5.49-5.75,7.68-8.33l4.14,4.03l-4.81,5.26l0.22,0.21
				c4.58-2.34,9.58-1.78,12.75,1.31c0.54,0.52,0.86,0.94,1.19,1.47l-4.34,4.46c-0.38-0.58-0.81-1.1-1.46-1.73
				c-3.33-3.24-8.16-3.02-12.25-0.1c-0.73,0.54-1.57,1.19-2.36,2l-13.5,13.87l-4.68-4.55L478.49,123.2z"/>
			<path class="st2" d="M502.05,160.88c-7.23,5.23-6.99,12.01-3.21,17.42c2.7,3.88,5.01,5.74,7.29,7.17l-3.23,3.63
				c-2.19-1.31-5.45-3.88-8.75-8.62c-6.39-9.16-4.18-18.84,4.8-25.11c8.98-6.26,19.74-5.91,25.79,2.76
				c6.78,9.72,0.03,18.27-5.44,22.08c-1.11,0.77-2.05,1.25-2.65,1.57L502.05,160.88z M516.99,174.05c3.49-2.34,7.81-7.55,3.56-13.64
				c-3.82-5.47-10.54-4.35-14.59-2.17L516.99,174.05z"/>
		</g>
		<g>
			<path class="st2" d="M309.24,6.88c-165.69,0-300,134.31-300,300s134.31,300,300,300s300-134.31,300-300S474.92,6.88,309.24,6.88z
				 M309.24,600.22c-162.01,0-293.33-131.33-293.33-293.33S147.23,13.55,309.24,13.55s293.33,131.33,293.33,293.33
				S471.24,600.22,309.24,600.22z"/>
			<path class="st1" d="M309.24,96.88c-115.98,0-210,94.02-210,210c0,115.98,94.02,210,210,210c115.98,0,210-94.02,210-210
				C519.24,190.9,425.21,96.88,309.24,96.88z M309.24,510.71c-112.57,0-203.82-91.26-203.82-203.82
				c0-112.57,91.25-203.82,203.82-203.82c112.57,0,203.82,91.25,203.82,203.82C513.06,419.45,421.8,510.71,309.24,510.71z"/>
		</g>
	</g>
	<path class="st3" d="M131.28,309.79c0,3.65,178.73,6.6,399.6,6.6"/>
	<path class="st3" d="M128.88,316.39c0-3.65,1.07-6.6,2.4-6.6"/>
	<g>
		<g id="Texas_vector_flag_1_">
			<path class="st1" d="M310.2,307.1v188.44c103.75-0.52,187.7-84.79,187.7-188.66c0-0.02,0-0.05,0-0.07H310.2V307.1L310.2,307.1z"
				/>
			<path class="st4" d="M495.11,307.42h-3.1v-14.07h-5.33v-18.81h-2.75l-4.83,1.4v9.14l-1.68,1.65v1.84h-1.25l-0.15-0.12l-1.05-1.85
				h-1.18v1.97h-1.92v-16.25l-0.73-0.77h-1.92v-1.06h-2.2v1.34h-1.4l-0.6,0.61v11.3h-1.23l-1.15,2.1v6.12h-1.1v-15.18h-4.91
				l-1.52-0.51v-8.09l-1.86-4.1h-1.8l-2.23,4.9v27.75h-0.8v-1.08l-2.93,0.99v0.09h-3.35v-1.27h-3.89v1.27h-0.82v-0.61h-1.53v-29.85
				h-3.78l-6.66,1.4v9.07l-2.3,1.72v18.27h-1.35v-16.16l-0.63-0.42l-1.4-1.81h-1.67v4.14l-0.57,1.27v5.22h-0.73v7.77h-1.3v-32.69
				l-1.06-0.77h-2.65v-1.05h-3.06v1.31h-1.87l-0.88,0.63v11.3h-1.62l-1.65,2.07v16.74h-1.53l-0.4-3.12h-1.83v-2.07h-3.17v-9.23
				h-6.07l-3.22,1.06V295l-0.71,1.62v0.09h-1.35v-27.88l-2.26-4.07h-1.05l-2.42-3.06h-1.83l-2.41,3.06h-1.15l-2.48,3.4v10.92h-1.83
				v-27.53h-6.93v1.2h-2.2v26.2l-1.48,0.54v1.15h-0.83v8.91h-1.15l-0.37-1.78h-1.32v-18.39l-1.95-1.72v-6.75l0.73-0.29v-2.04
				l-0.73-0.12l-0.3-4.97l-0.1,4.97l-0.75,0.25v1.85l0.65,0.48v6.37h-4.71v1.05h-1.83v25.91l-1.23-5.8h-1.73l-0.4-0.91h-1.43v-2.32
				h-1.08l-0.27-1.28h-2.93l-1.03,0.74h-1.45v4.93l-0.3,1.31v2.77h-1.43v-8.35l-5.03-5.43v-9.17l-1.53-7.2h-4.88l-0.73,3.34v-7.48
				l-0.8-1.05h-7.06v37.08h-0.53l-0.37-0.83h-1.92l-0.3,0.74h-1.98v-14.96h-3.76l-6.68,1.46v9.08l-2.33,1.72v3.98h-1.33v-1.88
				l-0.59-0.45l-1.43-1.78h-1.67v3.09h-2.61v-17.38l-1.05-0.79h-2.65v-1.02h-3.03v1.27h-1.9l10.67,0.66v8.6h-1.85V290l-1.43,1.81
				v3.57h-3.66l-11.52,7.77h-4.3v28.8h229.8v-0.02C495.91,323.68,495.64,315.5,495.11,307.42z M371.78,296.72v-27.09l1.28-0.92
				l0.3,2.23v25.78H371.78z M381.95,296.72v-25.78l0.32-2.23l1.28,0.92v27.09H381.95z M373.41,266.83v-1.27h0.2v1.31l0.37,0.48
				v-1.98h0.26v2.23l0.37,0.51v-3.12h0.2v3.37l0.37,0.48v-3.98h-0.05v-0.32h0.05v-0.38h0.25v0.38h0.37v-1.24h0.23v1.24h0.37v-1.85
				h0.23v1.85h0.37v-2.42h0.22v2.42h0.95v-2.42h0.25v2.42h0.37v-1.85h0.2v1.85h0.38v-1.24h0.25v1.24h0.37v-0.38h0.23v0.38h0.4v0.32
				h-0.4v1.43h0.37v-1.3h0.22v3.94h0.38v-3.57h0.22v3.5l0.37-0.86v-2.45h0.25v1.97l0.21-0.48l1.67,2.17h-0.3l-1.28-1.62l-0.82,1.85
				h-1.08l-1.2,2.29h-2.28c-0.95-1.18-2.4-2.92-3.58-4.39l-1.42,1.11l-0.28-0.29L373.41,266.83z M321.15,264.38h4.41l-0.04,0.41
				h-4.44L321.15,264.38z M321.05,265.34h4.41l-0.03,0.45h-4.41L321.05,265.34z M320.95,266.29h4.41l-0.02,0.45h-4.41L320.95,266.29
				z M320.87,267.31h4.41l-0.02,0.45h-4.41L320.87,267.31z M320.77,268.27h4.41l-0.02,0.44h-4.41L320.77,268.27z M320.68,269.22
				h4.41l-0.03,0.45h-4.43L320.68,269.22z M320.6,270.24h4.41l-0.03,0.45h-4.41L320.6,270.24z M320.5,271.19h4.41l-0.03,0.45h-4.41
				L320.5,271.19z M320.42,272.18h4.44l-0.07,0.48h-4.43L320.42,272.18z M316.67,274.22h2.18v0.35h-2.18V274.22z M316.47,275.68
				h2.58v0.35h-2.58V275.68z M316.29,277.08h2.91v0.35h-2.91V277.08z M316.14,278.51h3.18v0.35h-3.18V278.51z M380.62,266.71h-0.37
				v2.22h0.37V266.71z M380.02,266.71h-0.37v3.4l0.37-0.79V266.71z M380.02,264.86h-0.37v1.43h0.37V264.86z M379.4,270.56v-3.85
				h-0.38v4.45h0.1L379.4,270.56z M379.4,264.86h-0.38v1.43h0.38V264.86z M378.82,266.71h-0.37v4.45h0.37V266.71z M378.82,264.86
				h-0.37v1.43h0.37V264.86z M378.19,266.71h-0.95v4.48l0.95-0.03V266.71z M378.19,264.86h-0.95v1.43h0.95V264.86z M377.02,266.71
				h-0.37v3.91l0.37,0.5V266.71z M377.02,264.86h-0.37v1.43h0.37V264.86z M376.41,266.71h-0.37v3.15l0.37,0.48V266.71z
				 M376.41,264.86h-0.37v1.43h0.37V264.86z M375.81,266.71h-0.37v2.38l0.37,0.48V266.71z M375.81,264.86h-0.37v1.43h0.37V264.86z
				 M376.64,266.71v3.91l0.37,0.5v-4.42H376.64z M376.64,264.86v1.43h0.37v-1.43H376.64z M376.04,266.71v3.15l0.37,0.48v-3.62
				H376.04z M376.04,264.86v1.43h0.37v-1.43H376.04z M375.44,266.71v2.38l0.37,0.48v-2.86H375.44z M375.44,264.86v1.43h0.37v-1.43
				H375.44z M377.24,264.86v1.43h0.95v-1.43H377.24z M377.24,266.71v4.48l0.95-0.03v-4.45H377.24z M378.44,264.86v1.43h0.37v-1.43
				H378.44z M378.44,266.71v4.45h0.37v-4.45H378.44z M379.02,264.86v1.43h0.38v-1.43H379.02z M379.02,266.71v4.45h0.1l0.28-0.61
				v-3.85H379.02z M379.65,264.86v1.43h0.37v-1.43H379.65z M379.65,266.71v3.4l0.37-0.79v-2.6H379.65z M380.25,266.71v2.22h0.37
				v-2.22H380.25z M380.25,266.71v2.22h0.37v-2.22H380.25z M379.65,270.11l0.37-0.79v-2.6h-0.37V270.11z M379.65,266.29h0.37v-1.43
				h-0.37V266.29z M379.02,271.16h0.1l0.28-0.61v-3.85h-0.38V271.16z M379.02,266.29h0.38v-1.43h-0.38V266.29z M378.44,271.16h0.37
				v-4.45h-0.37V271.16z M378.44,266.29h0.37v-1.43h-0.37V266.29z M377.24,271.19l0.95-0.03v-4.45h-0.95V271.19z M377.24,266.29
				h0.95v-1.43h-0.95V266.29z M376.64,270.62l0.37,0.5v-4.42h-0.37V270.62z M376.64,266.29h0.37v-1.43h-0.37V266.29z M376.04,269.86
				l0.37,0.48v-3.62h-0.37V269.86z M376.04,266.29h0.37v-1.43h-0.37V266.29z M375.44,269.09l0.37,0.48v-2.86h-0.37V269.09z
				 M375.44,266.29h0.37v-1.43h-0.37V266.29z"/>
			<path class="st2" d="M309.24,118.21c-104.2,0-188.67,84.47-188.67,188.67s84.47,188.67,188.67,188.67c0.32,0,0.64-0.01,0.97-0.01
				V118.22C309.88,118.22,309.55,118.21,309.24,118.21z M254.5,372.21l-42.46-29.38l-42.45,29.38l14.71-49.92l-43.05-32.05h53.57
				l17.22-48.69l17.02,47.96l54.55,0.49l-43.3,31.55L254.5,372.21z"/>
		</g>
	</g>
</g>
</svg>
