<?xml version="1.0" encoding="utf-8"?>
<!-- Generator: Adobe Illustrator 24.3.0, SVG Export Plug-In . SVG Version: 6.00 Build 0)  -->
<svg version="1.1" id="Layer_1" xmlns="http://www.w3.org/2000/svg" xmlns:xlink="http://www.w3.org/1999/xlink" x="0px" y="0px"
	 viewBox="0 0 100.5 100.5" style="enable-background:new 0 0 100.5 100.5;" xml:space="preserve">
<style type="text/css">
	.st0{fill:#FF2C35;}
	.st1{fill:#FFFFFF;}
</style>
<g>
	<path class="st0" d="M100.25,50.25L100.25,50.25c0,27.61-22.39,50-50,50h0c-27.61,0-50-22.39-50-50v0c0-27.61,22.39-50,50-50h0
		C77.86,0.25,100.25,22.64,100.25,50.25z"/>
	<g>
		<g>
			<path class="st1" d="M42.65,75.75c-0.81,0-1.63-0.22-2.37-0.64c-0.97-0.56-1.71-1.42-2.07-2.43c-0.35,0.08-0.73,0.12-1.13,0.12
				c-0.72,0-1.43-0.14-2.11-0.42c-1.28-0.53-2.3-1.49-2.87-2.72c-0.06-0.13-0.12-0.26-0.17-0.39c-0.37,0.1-0.77,0.15-1.19,0.15
				c-2.44,0-4.5-1.79-4.86-4.19c-0.01,0-0.02,0-0.03,0c-2.43,0-4.42-1.98-4.42-4.42c0-0.92,0.27-1.78,0.78-2.5l-1.83-1.09
				c-0.17,0.14-0.35,0.26-0.56,0.36c-0.46,0.23-0.95,0.34-1.44,0.34c-0.37,0-0.73-0.06-1.07-0.19l-6.79-2.4
				c-1.61-0.57-2.49-2.3-2-3.94l7.35-24.36c0.26-0.85,0.83-1.53,1.62-1.93c0.45-0.22,0.94-0.34,1.44-0.34
				c0.36,0,0.72,0.06,1.07,0.18l6.79,2.4c1.57,0.56,2.45,2.21,2.04,3.8c1.17,0,2.95,0.05,5.13,0.23c1.56-1.38,3.52-2.82,5.52-4.06
				c2.61-1.61,6.08-2.5,9.77-2.5c2.69,0,5.24,0.5,6.81,1.33c2.13,1.13,10.56,3.61,15.57,5.03c-0.35-1.6,0.52-3.18,2.06-3.72
				l6.78-2.4c0.35-0.13,0.72-0.19,1.08-0.19c0.5,0,0.98,0.12,1.44,0.35c0.79,0.4,1.36,1.09,1.62,1.93l7.34,24.36
				c0.5,1.64-0.38,3.37-2,3.94l-6.78,2.4c-0.34,0.12-0.7,0.18-1.07,0.18c-0.5,0-0.99-0.12-1.45-0.35c-0.33-0.17-0.63-0.39-0.87-0.64
				c-1.05,0.48-2.2,0.72-3.42,0.72c-0.07,0-0.13,0-0.2,0c-0.02,0.09-0.05,0.18-0.08,0.27c-0.37,1.1-0.96,2.1-1.76,2.97
				c-0.58,0.62-1.23,1.15-1.96,1.57c-0.48,0.28-1.02,0.42-1.58,0.42c-0.04,0-0.08,0-0.11,0c0.1,0.6,0.04,1.22-0.21,1.8
				c-0.4,0.99-1.02,1.85-1.85,2.56c-0.91,0.78-1.99,1.29-3.2,1.51c-0.2,0.03-0.4,0.05-0.59,0.05c-0.36,0-0.72-0.06-1.08-0.18
				c-0.07,0.63-0.35,1.21-0.79,1.65c-0.55,0.55-1.14,1.06-1.73,1.5c-0.62,0.46-1.27,0.87-1.96,1.23c-0.41,0.22-0.85,0.32-1.3,0.32
				c-0.42,0-0.83-0.09-1.22-0.28c-0.42,0.64-0.95,1.18-1.58,1.63c-0.75,0.52-1.65,0.79-2.58,0.79c-0.86,0-1.71-0.23-2.45-0.67
				l-3.61-2.15c-0.08,0.38-0.22,0.75-0.42,1.1c-0.53,0.94-1.44,1.58-2.57,1.82C43.24,75.72,42.95,75.75,42.65,75.75z M39.33,70.65
				c0.03,0,0.05,0.01,0.08,0.02c0.05,0.03,0.07,0.09,0.06,0.15c-0.08,0.37-0.06,0.8,0.07,1.22c0.22,0.73,0.76,1.39,1.47,1.8
				c0.51,0.29,1.07,0.45,1.62,0.45c0.2,0,0.41-0.02,0.6-0.06c0.71-0.14,1.28-0.54,1.61-1.12c0.22-0.38,0.32-0.82,0.29-1.26
				c-0.03-0.63-0.3-1.25-0.76-1.75c-0.22-0.26-0.5-0.48-0.82-0.67c-0.31-0.17-0.61-0.29-0.9-0.35c-0.23-0.07-0.47-0.1-0.74-0.1
				c-0.25,0.01-0.43,0.03-0.6,0.05c-0.22,0.05-0.4,0.11-0.56,0.2c-0.02,0.01-0.04,0.02-0.07,0.02c-0.02,0-0.05-0.01-0.07-0.02
				l-0.1-0.06c-0.06-0.03-0.09-0.1-0.07-0.17c0.1-0.32,0.15-0.65,0.15-0.96c0-0.06,0-0.12-0.01-0.19c-0.1-1.43-1.05-2.68-2.41-3.24
				c-0.51-0.21-1.05-0.32-1.56-0.32c-0.35,0-0.71,0.05-1.06,0.15c-0.13,0.04-0.25,0.08-0.37,0.13c-0.28,0.11-0.54,0.25-0.77,0.43
				c-0.03,0.02-0.06,0.03-0.09,0.03c-0.02,0-0.05-0.01-0.07-0.02c-0.05-0.03-0.08-0.09-0.07-0.14c0.02-0.13,0.03-0.26,0.03-0.39
				c0-0.17-0.01-0.34-0.04-0.5c-0.02-0.13-0.04-0.25-0.08-0.38c-0.4-1.53-1.77-2.59-3.35-2.59c-0.21,0-0.41,0.02-0.61,0.05
				c-0.2,0.04-0.39,0.09-0.58,0.16c-0.21,0.08-0.4,0.17-0.59,0.29c-0.02,0.01-0.05,0.02-0.08,0.02c-0.03,0-0.06-0.01-0.08-0.03
				c-0.05-0.03-0.07-0.09-0.05-0.15c0.04-0.17,0.06-0.36,0.06-0.56c0-0.25-0.03-0.47-0.08-0.67c-0.31-1.33-1.52-2.29-2.88-2.29
				c-0.49,0-0.95,0.12-1.39,0.35c-0.36,0.19-0.66,0.44-0.92,0.76c-0.43,0.52-0.66,1.18-0.66,1.86c0,1.63,1.33,2.96,2.96,2.96
				c0.01,0,0.01,0,0.02,0c0.04,0,0.08,0,0.13-0.01c0.43-0.02,0.83-0.13,1.2-0.32c0.02-0.01,0.04-0.02,0.07-0.02
				c0.03,0,0.06,0.01,0.09,0.03c0.04,0.04,0.06,0.09,0.05,0.15c-0.08,0.26-0.12,0.56-0.12,0.88c0,0.11,0.01,0.24,0.02,0.35
				c0.18,1.76,1.7,3.12,3.45,3.12c0.34,0,0.68-0.05,1.01-0.15c0.4-0.12,0.78-0.32,1.12-0.58c0.03-0.02,0.06-0.03,0.09-0.03
				c0.02,0,0.05,0.01,0.07,0.02c0.05,0.03,0.08,0.08,0.07,0.14c-0.04,0.41,0.01,0.83,0.13,1.24c0.04,0.15,0.1,0.3,0.17,0.45
				c0.41,0.89,1.16,1.6,2.11,1.99c0.5,0.21,1.03,0.31,1.56,0.31c0.33,0,0.66-0.04,0.98-0.12c0.44-0.12,0.84-0.31,1.17-0.55
				C39.28,70.66,39.3,70.65,39.33,70.65z M50.87,73.64c0.53,0.32,1.13,0.48,1.73,0.48c0.62,0,1.21-0.18,1.7-0.51
				c0.53-0.37,0.97-0.83,1.3-1.36l-3.63-3.5c-0.28-0.28-0.29-0.74-0.01-1.02c0.14-0.14,0.32-0.22,0.52-0.22
				c0.19,0,0.36,0.07,0.5,0.2l3.95,3.81c0.01,0.01,0.07,0.05,0.08,0.06c0.26,0.25,0.6,0.39,0.96,0.39c0.21,0,0.43-0.05,0.62-0.15
				c0.57-0.3,1.15-0.66,1.77-1.11c0.57-0.43,1.1-0.89,1.56-1.35c0.26-0.25,0.4-0.6,0.39-0.97c-0.01-0.36-0.16-0.71-0.42-0.97
				l-5.03-4.63c-0.14-0.13-0.23-0.3-0.24-0.5c-0.01-0.19,0.06-0.39,0.19-0.53c0.14-0.15,0.34-0.23,0.54-0.23
				c0.18,0,0.35,0.07,0.48,0.19l1.22,1.13l4.48,4.11c0.35,0.32,0.81,0.5,1.29,0.5c0.11,0,0.22-0.01,0.33-0.03
				c0.95-0.17,1.79-0.57,2.52-1.18c0.64-0.54,1.13-1.22,1.45-2.02c0.29-0.7,0.12-1.51-0.42-2.05l-6.33-6.33
				c-0.28-0.29-0.28-0.74,0-1.03c0.14-0.14,0.32-0.21,0.51-0.21s0.38,0.07,0.51,0.21l6.21,6.21c0.32,0.32,0.75,0.5,1.19,0.5
				c0.29,0,0.58-0.08,0.83-0.22c0.59-0.35,1.14-0.79,1.62-1.31c0.65-0.72,1.15-1.55,1.46-2.46c0.13-0.46,0.1-0.85-0.06-1.19
				c-2.26-4.68-5.44-8.75-9.48-12.11c-1.31-1.1-2.67-2.09-4.16-3.04c-2.78-1.78-5.89-3.32-9.25-4.56c-0.53-0.06-1.1-0.09-1.67-0.09
				c-1.33,0-2.33,0.18-2.81,0.29c-0.23,0.05-0.7,0.19-1.3,0.37l-0.44,0.13c-5.98,1.81-9.54,2.58-11.91,2.58
				c-1.45,0-2.43-0.3-2.99-0.92c-0.52-0.57-0.73-1.3-0.61-2.1c0.16-1.18,1.02-2.59,2.55-4.19c-1.78-0.11-3.21-0.13-4.17-0.13
				l-6.95,23.05c-0.05,0.16-0.1,0.29-0.16,0.41l1.97,1.18c0.75-0.55,1.64-0.84,2.58-0.84c1.99,0,3.72,1.32,4.25,3.23
				c0.2-0.03,0.41-0.04,0.65-0.04c2.13,0,4.04,1.4,4.69,3.41c0.39-0.08,0.78-0.13,1.18-0.13c0.72,0,1.43,0.14,2.11,0.42
				c1.81,0.75,3.09,2.41,3.29,4.26c0.78,0.01,1.56,0.24,2.26,0.64c1.11,0.64,1.91,1.68,2.19,2.86L50.87,73.64z M81.55,26.32
				c-0.2,0-0.4,0.03-0.58,0.1l-6.79,2.4c-0.88,0.31-1.36,1.26-1.1,2.16l0.22,0.73l0.39,1.33l0.2,0.62l6.54,21.67
				c0.06,0.19,0.13,0.34,0.23,0.47c0.15,0.26,0.37,0.45,0.65,0.59c0.25,0.13,0.52,0.19,0.79,0.19c0.2,0,0.4-0.03,0.59-0.1l6.79-2.4
				c0.88-0.31,1.36-1.26,1.1-2.16l-7.35-24.36c-0.14-0.47-0.45-0.84-0.88-1.05C82.11,26.38,81.83,26.32,81.55,26.32z M18.95,26.2
				c-0.28,0-0.55,0.06-0.79,0.19c-0.43,0.21-0.74,0.59-0.89,1.06L9.93,51.8c-0.27,0.9,0.21,1.85,1.1,2.16l6.79,2.4
				c0.19,0.07,0.39,0.1,0.58,0.1c0.27,0,0.54-0.06,0.79-0.19c0.45-0.24,0.75-0.61,0.89-1.06l7.22-23.95l0.12-0.39
				c0.28-0.9-0.21-1.84-1.1-2.15l-6.78-2.4C19.33,26.24,19.15,26.2,18.95,26.2z M76.42,56.29c0.94,0,1.82-0.18,2.63-0.52
				c0-0.02-6.93-22.96-6.93-22.96c-4.26-1.2-14.22-4.07-16.72-5.39c-1.41-0.75-3.7-1.19-6.14-1.19c-3.4,0-6.59,0.82-9,2.31
				c-1.59,0.98-3.15,2.1-4.51,3.23c-0.42,0.35-0.82,0.69-1.18,1.05c-1.83,1.7-2.96,3.26-3.11,4.29c-0.05,0.39,0.03,0.68,0.25,0.93
				c0.27,0.3,0.89,0.45,1.82,0.45c3.18,0,9.23-1.81,11.5-2.5l0.1-0.03c0.96-0.29,1.54-0.46,1.85-0.53c0.29-0.07,0.76-0.16,1.39-0.22
				c0.56-0.07,1.15-0.11,1.75-0.11c0.67,0,1.36,0.05,2.03,0.13c3.58,0.46,6.83,2.03,9.66,4.69l0.14,0.14
				c6.21,3.98,10.93,9.26,14.02,15.66c0.09,0.19,0.15,0.37,0.2,0.56C76.25,56.29,76.34,56.29,76.42,56.29z"/>
			<path class="st1" d="M18.94,24.9c0.34,0,0.69,0.06,1.02,0.18l6.79,2.4c1.55,0.55,2.39,2.2,1.91,3.77l-0.01,0.04
				c1.27,0,3.12,0.05,5.36,0.23c1.69-1.5,3.7-2.95,5.54-4.09c2.87-1.78,6.47-2.48,9.69-2.48c2.76,0,5.24,0.52,6.74,1.32
				c2.24,1.19,11.43,3.86,15.84,5.11l-0.01-0.02c-0.48-1.57,0.36-3.23,1.91-3.77l6.78-2.4c0.34-0.12,0.69-0.18,1.03-0.18
				c0.47,0,0.94,0.11,1.37,0.33c0.76,0.38,1.31,1.04,1.55,1.85l7.34,24.36c0.48,1.57-0.36,3.22-1.91,3.77l-6.78,2.4
				c-0.34,0.12-0.68,0.18-1.03,0.18c-0.48,0-0.94-0.11-1.38-0.34c-0.35-0.18-0.65-0.41-0.91-0.69c-1.16,0.55-2.33,0.76-3.45,0.76
				c-0.1,0-0.21,0-0.31-0.01c-0.03,0.12-0.06,0.24-0.1,0.36c-0.37,1.1-0.96,2.08-1.74,2.93c-0.56,0.61-1.2,1.13-1.92,1.55
				c-0.47,0.28-0.99,0.4-1.51,0.4c-0.1,0-0.19,0-0.29-0.01c0.15,0.63,0.09,1.29-0.16,1.9c-0.4,0.99-1.02,1.83-1.81,2.51
				c-0.9,0.76-1.95,1.26-3.13,1.47c-0.19,0.03-0.38,0.05-0.57,0.05c-0.41,0-0.82-0.08-1.2-0.23c-0.03,0.66-0.29,1.28-0.76,1.74
				c-0.53,0.53-1.11,1.04-1.72,1.48c-0.62,0.46-1.27,0.87-1.94,1.22c-0.39,0.21-0.81,0.31-1.23,0.31c-0.44,0-0.87-0.11-1.27-0.33
				c-0.35,0.55-0.86,1.17-1.61,1.7c-0.75,0.51-1.62,0.76-2.5,0.76c-0.82,0-1.64-0.21-2.38-0.65l-3.79-2.26
				c-0.07,0.44-0.21,0.86-0.44,1.26c-0.51,0.91-1.4,1.52-2.47,1.74c-0.29,0.06-0.57,0.08-0.86,0.08c-0.78,0-1.58-0.21-2.29-0.62
				c-1.02-0.59-1.73-1.49-2.05-2.48c-0.39,0.1-0.8,0.15-1.22,0.15c-0.68,0-1.37-0.13-2.05-0.41c-1.25-0.51-2.24-1.46-2.79-2.65
				c-0.07-0.17-0.15-0.34-0.2-0.5c-0.41,0.12-0.84,0.18-1.28,0.18c-2.43,0-4.45-1.83-4.74-4.2c-0.06,0.01-0.1,0.01-0.16,0.01
				c-2.36,0-4.27-1.92-4.27-4.27c0-0.95,0.31-1.84,0.85-2.55l-2.05-1.22c-0.19,0.17-0.38,0.3-0.61,0.41
				c-0.44,0.21-0.91,0.33-1.38,0.33c-0.35,0-0.69-0.06-1.03-0.18l-6.79-2.4c-1.54-0.54-2.38-2.2-1.91-3.77l7.35-24.36
				c0.24-0.8,0.79-1.46,1.55-1.85C18,25.01,18.47,24.9,18.94,24.9 M18.4,56.6c0.29,0,0.58-0.07,0.85-0.2
				c0.01-0.01,0.03-0.01,0.04-0.03c0.45-0.23,0.77-0.63,0.92-1.12l7.22-23.96l0.12-0.39c0.3-0.97-0.22-2-1.18-2.33l-6.78-2.4
				c-0.21-0.07-0.42-0.11-0.63-0.11c-0.3,0-0.59,0.07-0.86,0.21c-0.47,0.23-0.8,0.64-0.96,1.15L9.79,51.76
				c-0.29,0.97,0.22,2,1.18,2.33l6.79,2.4C17.97,56.56,18.19,56.6,18.4,56.6 M33.54,38.63c3.25,0,9.31-1.83,11.64-2.53
				c0.88-0.27,1.51-0.46,1.84-0.53c0.33-0.07,0.79-0.16,1.37-0.21c0.5-0.06,1.08-0.1,1.74-0.1c0.62,0,1.29,0.04,2.01,0.13
				c2.78,0.35,6.25,1.53,9.58,4.65l0.14,0.14c5.58,3.58,10.61,8.6,13.99,15.62c0.09,0.21,0.17,0.42,0.21,0.63
				c0.12,0.01,0.24,0.01,0.36,0.01c0.93,0,1.88-0.17,2.8-0.59c-0.02-0.05-0.03-0.1-0.05-0.15l-6.94-23
				c-4.09-1.15-14.27-4.08-16.77-5.4c-1.39-0.74-3.66-1.21-6.21-1.21c-3,0-6.38,0.66-9.07,2.33c-1.68,1.04-3.22,2.15-4.52,3.25
				c-0.42,0.35-0.82,0.7-1.18,1.05c-1.82,1.69-2.99,3.27-3.15,4.38c-0.06,0.44,0.04,0.76,0.29,1.04
				C31.93,38.49,32.62,38.63,33.54,38.63 M82.1,56.71c0.21,0,0.43-0.04,0.64-0.11l6.79-2.4c0.95-0.34,1.47-1.36,1.18-2.33
				l-7.35-24.36c-0.15-0.49-0.49-0.9-0.95-1.14c-0.27-0.14-0.57-0.21-0.86-0.21c-0.21,0-0.43,0.04-0.63,0.11l-6.79,2.4
				c-0.95,0.34-1.47,1.36-1.19,2.33l0.22,0.73l0.39,1.32l0.2,0.62l6.54,21.67c0.06,0.19,0.13,0.35,0.25,0.51
				c0.16,0.27,0.4,0.49,0.7,0.63C81.52,56.64,81.81,56.71,82.1,56.71 M23.29,57.4c0.72-0.55,1.6-0.87,2.57-0.87
				c2,0,3.68,1.38,4.14,3.25c0.24-0.05,0.49-0.07,0.76-0.07c2.17,0,4.01,1.46,4.59,3.44c0.41-0.1,0.84-0.16,1.28-0.16
				c0.68,0,1.38,0.13,2.05,0.41c1.87,0.77,3.07,2.47,3.22,4.27c0.02,0,0.03,0,0.05,0c0.78,0,1.56,0.21,2.27,0.63
				c1.13,0.65,1.88,1.71,2.14,2.83l4.44,2.64c0.56,0.33,1.19,0.5,1.81,0.5c0.64,0,1.26-0.18,1.79-0.54c0.69-0.48,1.13-1.04,1.4-1.5
				l-3.71-3.57c-0.22-0.22-0.23-0.59-0.01-0.82c0.12-0.12,0.27-0.18,0.42-0.18c0.14,0,0.29,0.05,0.4,0.16l3.95,3.81
				c0.03,0.02,0.05,0.04,0.07,0.06l0.02,0.01c0.29,0.28,0.68,0.43,1.06,0.43c0.23,0,0.47-0.06,0.69-0.17
				c0.62-0.33,1.22-0.71,1.79-1.12c0.56-0.42,1.09-0.88,1.58-1.37c0.29-0.28,0.44-0.66,0.43-1.07c-0.01-0.39-0.18-0.78-0.46-1.06
				c-0.01-0.02-0.03-0.03-0.04-0.04l-3.78-3.47c-0.01-0.01-0.01-0.01-0.02-0.02l-1.2-1.11c-0.24-0.21-0.25-0.59-0.04-0.82
				c0.12-0.12,0.28-0.19,0.43-0.19c0.14,0,0.28,0.05,0.39,0.15l1.22,1.13l3.78,3.47l0.7,0.64c0.38,0.35,0.88,0.54,1.38,0.54
				c0.12,0,0.24-0.01,0.36-0.03c0.98-0.18,1.85-0.59,2.58-1.21c0.65-0.56,1.16-1.26,1.49-2.07c0.31-0.76,0.13-1.62-0.45-2.2
				l-4.37-4.38l-1.96-1.96c-0.22-0.23-0.22-0.6,0-0.83c0.11-0.11,0.26-0.17,0.41-0.17c0.15,0,0.3,0.06,0.41,0.17l1.96,1.96
				l4.25,4.25c0.36,0.36,0.82,0.54,1.29,0.54c0.31,0,0.62-0.08,0.9-0.24c0.62-0.36,1.17-0.81,1.65-1.33
				c0.66-0.73,1.17-1.57,1.49-2.51c0.01-0.04,0.02-0.07,0.03-0.1c0.11-0.4,0.07-0.83-0.09-1.19l-0.01-0.01
				c-2.43-5.04-5.75-9.02-9.51-12.15c-1.34-1.13-2.73-2.14-4.17-3.05c-2.99-1.92-6.15-3.41-9.28-4.57c-0.61-0.07-1.19-0.1-1.72-0.1
				c-1.29,0-2.29,0.17-2.85,0.29c-0.29,0.07-0.93,0.26-1.75,0.5c-5.09,1.54-9.2,2.58-11.87,2.58c-1.35,0-2.34-0.27-2.89-0.87
				c-0.49-0.53-0.69-1.21-0.58-1.99c0.18-1.32,1.25-2.84,2.72-4.34c-1.95-0.13-3.53-0.15-4.59-0.15l-6.98,23.15
				c-0.06,0.18-0.12,0.35-0.21,0.5L23.29,57.4 M25.86,63.91c0.06,0,0.11,0,0.17-0.01c0.45-0.02,0.87-0.14,1.24-0.34
				c-0.08,0.29-0.12,0.61-0.12,0.92c0,0.12,0.01,0.25,0.02,0.37c0,0,0,0,0,0.01c0.19,1.81,1.73,3.23,3.59,3.23
				c0.36,0,0.72-0.06,1.05-0.16c0.43-0.13,0.82-0.34,1.17-0.6c-0.04,0.43,0.01,0.87,0.14,1.3c0.05,0.16,0.1,0.32,0.18,0.47
				c0.43,0.92,1.2,1.65,2.18,2.06c0.53,0.22,1.08,0.32,1.61,0.32c0.35,0,0.69-0.04,1.02-0.13c0.44-0.12,0.86-0.31,1.22-0.57
				c-0.09,0.42-0.06,0.87,0.07,1.3c0.22,0.75,0.76,1.44,1.54,1.88c0.53,0.31,1.11,0.47,1.69,0.47c0.21,0,0.43-0.02,0.63-0.07
				c0.75-0.15,1.35-0.57,1.71-1.18c0.24-0.41,0.34-0.88,0.31-1.34c-0.03-0.64-0.31-1.31-0.79-1.84c-0.23-0.27-0.52-0.5-0.86-0.7
				c-0.3-0.17-0.62-0.3-0.94-0.36c-0.25-0.07-0.51-0.1-0.77-0.1c-0.03,0-0.06,0-0.08,0.01c-0.18,0-0.36,0.02-0.54,0.05
				c-0.21,0.05-0.42,0.11-0.61,0.21l-0.1-0.06c0.1-0.33,0.16-0.66,0.16-1.01c0-0.07,0-0.13-0.01-0.21c0-0.02,0-0.05-0.01-0.07
				c-0.09-1.37-1.03-2.69-2.49-3.29c-0.53-0.21-1.08-0.33-1.61-0.33c-0.37,0-0.75,0.06-1.1,0.16c-0.13,0.04-0.26,0.08-0.38,0.13
				c-0.29,0.11-0.56,0.26-0.8,0.45c0.02-0.14,0.03-0.27,0.03-0.41c0-0.18-0.01-0.35-0.04-0.52c-0.02-0.13-0.05-0.26-0.08-0.39
				c-0.4-1.55-1.81-2.7-3.49-2.7c-0.21,0-0.43,0.02-0.63,0.06c-0.2,0.04-0.41,0.09-0.61,0.17c-0.21,0.08-0.42,0.18-0.62,0.3
				c0.05-0.2,0.07-0.39,0.07-0.6v-0.03c0-0.23-0.03-0.47-0.08-0.68c-0.32-1.37-1.56-2.4-3.02-2.4c-0.52,0-1.02,0.13-1.46,0.36
				c-0.37,0.2-0.7,0.47-0.96,0.79c-0.44,0.53-0.69,1.21-0.69,1.95C22.76,62.51,24.15,63.91,25.86,63.91 M18.94,24.61
				C18.94,24.61,18.94,24.61,18.94,24.61c-0.52,0-1.04,0.12-1.5,0.36c-0.83,0.42-1.43,1.13-1.69,2.02L8.4,51.34
				c-0.51,1.72,0.41,3.53,2.09,4.12l6.79,2.4c0.36,0.13,0.73,0.19,1.12,0.19c0.52,0,1.02-0.12,1.51-0.36
				c0.19-0.09,0.35-0.2,0.51-0.32l1.61,0.96c-0.47,0.72-0.72,1.57-0.72,2.46c0,2.48,2,4.51,4.47,4.56c0.42,2.41,2.52,4.19,4.98,4.19
				c0.38,0,0.75-0.04,1.1-0.12c0.04,0.09,0.08,0.19,0.12,0.28c0.58,1.27,1.63,2.26,2.94,2.8c0.7,0.29,1.42,0.43,2.16,0.43
				c0.36,0,0.71-0.03,1.04-0.1c0.39,0.99,1.13,1.84,2.09,2.39c0.76,0.43,1.6,0.66,2.44,0.66c0.3,0,0.6-0.03,0.91-0.09
				c1.17-0.24,2.12-0.91,2.67-1.88c0.17-0.31,0.3-0.63,0.39-0.95l3.44,2.05c0.76,0.45,1.64,0.69,2.52,0.69
				c0.97,0,1.89-0.28,2.66-0.81c0.61-0.43,1.14-0.96,1.55-1.57c0.38,0.16,0.77,0.25,1.17,0.25c0.47,0,0.93-0.11,1.36-0.34
				c0.69-0.36,1.36-0.78,1.98-1.25c0.6-0.44,1.19-0.95,1.75-1.51c0.43-0.42,0.71-0.97,0.81-1.56c0.32,0.09,0.64,0.13,0.96,0.13
				c0.19,0,0.39-0.02,0.61-0.05c1.24-0.23,2.34-0.74,3.28-1.54c0.84-0.72,1.48-1.6,1.89-2.62c0.23-0.55,0.31-1.14,0.24-1.71
				c0.57-0.01,1.12-0.16,1.6-0.44c0.73-0.43,1.4-0.97,1.99-1.6c0.81-0.89,1.42-1.91,1.8-3.03c0.02-0.05,0.04-0.11,0.05-0.16
				c0.03,0,0.06,0,0.09,0c1.21,0,2.34-0.23,3.39-0.7c0.24,0.24,0.52,0.44,0.84,0.6c0.48,0.24,0.99,0.37,1.51,0.37
				c0.39,0,0.77-0.07,1.12-0.19l6.78-2.4c1.69-0.6,2.61-2.41,2.09-4.12L84.76,27.1c-0.27-0.89-0.87-1.6-1.69-2.02
				c-0.48-0.24-0.98-0.36-1.5-0.36c-0.38,0-0.76,0.07-1.13,0.2l-6.78,2.4c-1.54,0.54-2.44,2.08-2.2,3.65
				c-5.03-1.43-13.23-3.84-15.31-4.96c-1.59-0.85-4.16-1.35-6.88-1.35c-3.72,0-7.21,0.9-9.84,2.53c-1.99,1.23-3.93,2.66-5.49,4.03
				c-2.05-0.17-3.74-0.21-4.9-0.22c0.31-1.62-0.59-3.23-2.17-3.79l-6.79-2.4C19.7,24.68,19.32,24.61,18.94,24.61L18.94,24.61
				L18.94,24.61z M18.4,56.32c-0.18,0-0.36-0.03-0.54-0.09l-6.79-2.4c-0.81-0.28-1.25-1.15-1.01-1.98l7.34-24.35
				c0.14-0.43,0.43-0.78,0.81-0.97c0.23-0.12,0.47-0.18,0.73-0.18c0.18,0,0.35,0.03,0.54,0.1l6.78,2.4
				c0.82,0.29,1.26,1.16,1.01,1.98l-0.12,0.39l-7.22,23.96c-0.13,0.41-0.41,0.75-0.78,0.95c-0.02,0.01-0.04,0.02-0.05,0.04
				C18.88,56.26,18.64,56.32,18.4,56.32L18.4,56.32z M33.54,38.34c-1.11,0-1.55-0.22-1.72-0.41c-0.2-0.22-0.26-0.46-0.22-0.82
				c0.14-0.99,1.26-2.53,3.06-4.2c0.35-0.34,0.72-0.66,1.17-1.05c1.35-1.13,2.91-2.24,4.49-3.22c2.38-1.47,5.55-2.29,8.92-2.29
				c2.42,0,4.69,0.44,6.07,1.17c2.5,1.32,12.38,4.17,16.68,5.38l6.87,22.76c-0.76,0.31-1.58,0.46-2.46,0.46c-0.05,0-0.09,0-0.13,0
				c-0.05-0.16-0.11-0.31-0.18-0.47c-3.1-6.42-7.83-11.71-14.07-15.72l-0.12-0.12c-2.86-2.68-6.14-4.28-9.75-4.74
				c-0.68-0.09-1.37-0.14-2.05-0.14c-0.61,0-1.2,0.04-1.77,0.11c-0.63,0.06-1.11,0.15-1.4,0.22c-0.31,0.07-0.89,0.24-1.86,0.54
				l-0.1,0.03C42.72,36.54,36.7,38.34,33.54,38.34L33.54,38.34z M82.1,56.43c-0.25,0-0.5-0.06-0.73-0.17
				c-0.26-0.13-0.45-0.3-0.58-0.52c-0.11-0.15-0.17-0.28-0.22-0.45l-6.54-21.67l-0.2-0.63l-0.39-1.32l-0.23-0.73
				c-0.24-0.82,0.2-1.69,1.01-1.98l6.79-2.4c0.18-0.06,0.36-0.1,0.54-0.1c0.26,0,0.51,0.06,0.73,0.17c0.39,0.2,0.68,0.54,0.81,0.97
				l7.35,24.36c0.25,0.82-0.2,1.69-1.01,1.98l-6.79,2.4C82.47,56.4,82.29,56.43,82.1,56.43L82.1,56.43z M21.49,55.99
				c0.04-0.09,0.08-0.19,0.11-0.31l6.92-22.95c0.9,0,2.18,0.02,3.75,0.11c-1.42,1.54-2.22,2.9-2.38,4.05
				c-0.12,0.85,0.1,1.62,0.65,2.22c0.59,0.65,1.61,0.96,3.1,0.96c2.38,0,5.95-0.77,11.95-2.59l0.44-0.13
				c0.59-0.18,1.06-0.32,1.29-0.37c0.47-0.11,1.47-0.29,2.78-0.29c0.55,0,1.1,0.03,1.65,0.09c3.34,1.23,6.43,2.76,9.19,4.53
				c1.49,0.95,2.84,1.94,4.14,3.03c4.02,3.35,7.19,7.41,9.43,12.06c0.01,0.01,0.01,0.03,0.02,0.04c0.13,0.3,0.15,0.65,0.06,0.96
				l0.26,0.13l-0.27-0.08l-0.02,0.06c-0.3,0.87-0.79,1.68-1.43,2.38c-0.47,0.5-1,0.94-1.59,1.28c-0.23,0.13-0.49,0.2-0.75,0.2
				c-0.41,0-0.8-0.16-1.09-0.46l-4.25-4.25l-1.96-1.96c-0.16-0.16-0.38-0.25-0.61-0.25c-0.23,0-0.45,0.09-0.61,0.25
				c-0.33,0.35-0.33,0.89,0,1.23l1.96,1.96l4.37,4.38c0.5,0.5,0.65,1.24,0.39,1.89c-0.32,0.77-0.79,1.43-1.41,1.96
				c-0.7,0.59-1.52,0.98-2.45,1.15c-0.1,0.02-0.21,0.03-0.31,0.03c-0.44,0-0.87-0.17-1.19-0.46l-0.7-0.64l-3.78-3.47l-1.22-1.13
				c-0.16-0.15-0.36-0.23-0.58-0.23c-0.24,0-0.47,0.1-0.64,0.27c-0.16,0.17-0.24,0.41-0.23,0.64c0.01,0.23,0.11,0.44,0.29,0.6
				l1.2,1.11l3.8,3.49c0.01,0.01,0.01,0.01,0.01,0.01c0,0,0,0,0,0c0.01,0.01,0.01,0.01,0.02,0.02c0.23,0.23,0.37,0.55,0.37,0.87
				c0.01,0.33-0.11,0.64-0.34,0.86c-0.46,0.47-0.98,0.92-1.55,1.35c-0.61,0.44-1.18,0.8-1.75,1.09c-0.17,0.09-0.36,0.14-0.55,0.14
				c-0.32,0-0.62-0.12-0.86-0.35c-0.01-0.01-0.03-0.03-0.05-0.04c-0.02-0.01-0.03-0.03-0.05-0.04l-3.93-3.79
				c-0.16-0.16-0.38-0.24-0.6-0.24c-0.24,0-0.46,0.1-0.63,0.27c-0.33,0.35-0.33,0.88,0.01,1.22l3.55,3.42
				c-0.31,0.48-0.71,0.89-1.2,1.22c-0.47,0.32-1.03,0.49-1.62,0.49c-0.58,0-1.15-0.16-1.66-0.46l-4.34-2.58
				c-0.3-1.19-1.12-2.24-2.24-2.89c-0.69-0.4-1.45-0.62-2.21-0.66c-0.25-1.85-1.55-3.51-3.37-4.26c-0.69-0.28-1.42-0.43-2.16-0.43
				c-0.37,0-0.73,0.04-1.09,0.11c-0.7-2.01-2.63-3.39-4.78-3.39c-0.2,0-0.38,0.01-0.55,0.03c-0.58-1.9-2.34-3.21-4.35-3.21
				c-0.94,0-1.83,0.28-2.59,0.81L21.49,55.99L21.49,55.99z M25.89,63.62c-0.01,0-0.02,0-0.02,0c-1.56,0-2.82-1.27-2.82-2.82
				c0-0.65,0.22-1.28,0.63-1.77c0.24-0.3,0.53-0.54,0.87-0.72c0.41-0.22,0.86-0.33,1.32-0.33c1.3,0,2.45,0.92,2.74,2.18
				c0.05,0.2,0.08,0.41,0.08,0.62c0,0.22-0.02,0.4-0.06,0.56c-0.03,0.11,0.02,0.23,0.11,0.3c0.05,0.04,0.11,0.05,0.17,0.05
				c0.05,0,0.1-0.01,0.15-0.04c0.16-0.1,0.34-0.19,0.57-0.28c0.17-0.07,0.36-0.12,0.55-0.15c0.19-0.03,0.38-0.05,0.58-0.05
				c1.51,0,2.83,1.02,3.21,2.48c0.03,0.12,0.06,0.24,0.08,0.36c0.02,0.14,0.03,0.3,0.03,0.48c0,0.13-0.01,0.25-0.03,0.37
				c-0.02,0.11,0.04,0.23,0.14,0.29c0.04,0.03,0.09,0.04,0.14,0.04c0.06,0,0.12-0.02,0.17-0.06c0.22-0.17,0.46-0.3,0.73-0.41
				c0.11-0.04,0.23-0.09,0.36-0.12c0.34-0.1,0.68-0.15,1.02-0.15c0.49,0,1.01,0.11,1.51,0.31c1.31,0.54,2.22,1.74,2.31,3.05
				c0,0.02,0.01,0.04,0.01,0.06c0.01,0.09,0.01,0.14,0.01,0.19c0,0.3-0.05,0.61-0.15,0.92c-0.04,0.13,0.02,0.27,0.14,0.34l0.1,0.06
				c0.04,0.02,0.09,0.03,0.14,0.03c0.05,0,0.09-0.01,0.14-0.04c0.14-0.08,0.32-0.14,0.53-0.19c0.17-0.03,0.33-0.04,0.48-0.04
				c0.03,0,0.06-0.01,0.09-0.02c0.24,0.01,0.47,0.04,0.68,0.1c0.3,0.06,0.59,0.17,0.88,0.34c0.31,0.18,0.57,0.4,0.78,0.64
				c0.44,0.48,0.7,1.08,0.72,1.66c0.03,0.43-0.06,0.83-0.27,1.19c-0.31,0.54-0.85,0.92-1.52,1.05c-0.19,0.04-0.38,0.06-0.58,0.06
				c-0.52,0-1.06-0.15-1.55-0.43c-0.69-0.4-1.2-1.02-1.41-1.72c-0.12-0.41-0.15-0.8-0.07-1.15c0.03-0.12-0.02-0.24-0.12-0.3
				c-0.05-0.03-0.1-0.05-0.16-0.05c-0.06,0-0.12,0.02-0.17,0.05c-0.32,0.23-0.7,0.41-1.13,0.53c-0.3,0.08-0.62,0.12-0.94,0.12
				c-0.51,0-1.02-0.1-1.5-0.3c-0.91-0.38-1.64-1.06-2.03-1.92c-0.06-0.12-0.11-0.26-0.16-0.43c-0.12-0.4-0.16-0.8-0.13-1.19
				c0.01-0.11-0.05-0.22-0.15-0.27c-0.04-0.02-0.09-0.04-0.14-0.04c-0.06,0-0.12,0.02-0.17,0.06c-0.33,0.25-0.69,0.43-1.08,0.55
				c-0.32,0.1-0.64,0.15-0.97,0.15c-1.68,0-3.14-1.31-3.31-2.97c-0.01-0.12-0.02-0.24-0.02-0.35c0-0.31,0.04-0.59,0.11-0.84
				c0.03-0.11-0.01-0.23-0.09-0.3c-0.05-0.04-0.12-0.06-0.18-0.06c-0.05,0-0.09,0.01-0.13,0.03c-0.35,0.19-0.73,0.29-1.12,0.3
				C25.96,63.62,25.92,63.62,25.89,63.62L25.89,63.62z M27.27,63.85L27.27,63.85L27.27,63.85L27.27,63.85z"/>
		</g>
		<g>
			<path class="st1" d="M15.07,52.11c-0.09,0-0.17-0.01-0.26-0.03c-0.73-0.15-1.21-0.86-1.07-1.59c0.12-0.64,0.68-1.1,1.33-1.1
				c0.09,0,0.17,0.01,0.26,0.03c0.36,0.07,0.66,0.27,0.87,0.58s0.27,0.66,0.21,1.02C16.27,51.65,15.71,52.11,15.07,52.11
				C15.07,52.11,15.07,52.11,15.07,52.11z"/>
			<path class="st1" d="M15.06,49.54c0.08,0,0.16,0.01,0.24,0.02c0.66,0.13,1.09,0.77,0.96,1.43c-0.11,0.58-0.62,0.98-1.19,0.98
				c-0.08,0-0.16-0.01-0.23-0.02c-0.66-0.13-1.09-0.77-0.96-1.43C13.99,49.94,14.49,49.54,15.06,49.54 M15.06,49.25
				c-0.71,0-1.33,0.51-1.47,1.21c-0.16,0.81,0.37,1.6,1.18,1.76c0.1,0.02,0.19,0.03,0.29,0.03c0.71,0,1.33-0.51,1.47-1.21
				c0.08-0.39,0-0.79-0.23-1.13c-0.22-0.33-0.56-0.56-0.96-0.64C15.26,49.26,15.16,49.25,15.06,49.25L15.06,49.25z"/>
		</g>
		<g>
			<path class="st1" d="M84.7,52.11c-0.09,0-0.17-0.01-0.26-0.03c-0.73-0.15-1.21-0.86-1.07-1.59c0.12-0.64,0.68-1.1,1.33-1.1
				c0.09,0,0.17,0.01,0.26,0.03c0.36,0.07,0.66,0.27,0.87,0.58c0.2,0.3,0.27,0.66,0.21,1.02C85.91,51.65,85.35,52.11,84.7,52.11
				L84.7,52.11z"/>
			<path class="st1" d="M84.7,49.54c0.08,0,0.16,0.01,0.24,0.02c0.66,0.13,1.09,0.77,0.96,1.43c-0.11,0.58-0.62,0.98-1.19,0.98
				c-0.08,0-0.16-0.01-0.23-0.02c-0.66-0.13-1.09-0.77-0.96-1.43C83.62,49.94,84.13,49.54,84.7,49.54 M84.7,49.25
				c-0.71,0-1.33,0.51-1.47,1.21c-0.16,0.81,0.37,1.6,1.18,1.76c0.1,0.02,0.19,0.03,0.29,0.03c0.72,0,1.33-0.51,1.47-1.21
				c0.08-0.39,0-0.79-0.23-1.13c-0.22-0.33-0.56-0.56-0.96-0.64C84.89,49.26,84.79,49.25,84.7,49.25L84.7,49.25z"/>
		</g>
	</g>
</g>
</svg>
