<?xml version="1.0" encoding="utf-8"?>
<!-- Generator: Adobe Illustrator 24.3.0, SVG Export Plug-In . SVG Version: 6.00 Build 0)  -->
<svg version="1.1" id="Layer_1" xmlns="http://www.w3.org/2000/svg" xmlns:xlink="http://www.w3.org/1999/xlink" x="0px" y="0px"
	 viewBox="0 0 100.5 100.5" style="enable-background:new 0 0 100.5 100.5;" xml:space="preserve">
<style type="text/css">
	.st0{fill:#9D071C;}
	.st1{fill:#FFFFFF;}
</style>
<g>
	<path class="st0" d="M100.2,50.2L100.2,50.2c0,27.6-22.4,50-50,50l0,0c-27.6,0-50-22.4-50-50l0,0c0-27.6,22.4-50,50-50l0,0
		C77.9,0.2,100.2,22.6,100.2,50.2z"/>
	<g>
		<g>
			<path class="st1" d="M42.7,75.8c-0.8,0-1.6-0.2-2.4-0.6c-1-0.6-1.7-1.4-2.1-2.4c-0.3,0.1-0.7,0.1-1.1,0.1c-0.7,0-1.4-0.1-2.1-0.4
				c-1.3-0.5-2.3-1.5-2.9-2.7c-0.1-0.1-0.1-0.3-0.2-0.4c-0.4,0.1-0.8,0.2-1.2,0.2c-2.4,0-4.5-1.8-4.9-4.2c0,0,0,0,0,0
				c-2.4,0-4.4-2-4.4-4.4c0-0.9,0.3-1.8,0.8-2.5l-1.8-1.1c-0.2,0.1-0.4,0.3-0.6,0.4c-0.5,0.2-1,0.3-1.4,0.3c-0.4,0-0.7-0.1-1.1-0.2
				l-6.8-2.4c-1.6-0.6-2.5-2.3-2-3.9L15.9,27c0.3-0.9,0.8-1.5,1.6-1.9c0.5-0.2,0.9-0.3,1.4-0.3c0.4,0,0.7,0.1,1.1,0.2l6.8,2.4
				c1.6,0.6,2.5,2.2,2,3.8c1.2,0,3,0,5.1,0.2c1.6-1.4,3.5-2.8,5.5-4.1c2.6-1.6,6.1-2.5,9.8-2.5c2.7,0,5.2,0.5,6.8,1.3
				c2.1,1.1,10.6,3.6,15.6,5c-0.3-1.6,0.5-3.2,2.1-3.7l6.8-2.4c0.3-0.1,0.7-0.2,1.1-0.2c0.5,0,1,0.1,1.4,0.4
				c0.8,0.4,1.4,1.1,1.6,1.9L92,51.5c0.5,1.6-0.4,3.4-2,3.9l-6.8,2.4C82.8,58,82.5,58,82.1,58c-0.5,0-1-0.1-1.4-0.3
				c-0.3-0.2-0.6-0.4-0.9-0.6c-1.1,0.5-2.2,0.7-3.4,0.7c-0.1,0-0.1,0-0.2,0c0,0.1-0.1,0.2-0.1,0.3c-0.4,1.1-1,2.1-1.8,3
				c-0.6,0.6-1.2,1.2-2,1.6c-0.5,0.3-1,0.4-1.6,0.4c0,0-0.1,0-0.1,0c0.1,0.6,0,1.2-0.2,1.8c-0.4,1-1,1.8-1.8,2.6
				c-0.9,0.8-2,1.3-3.2,1.5c-0.2,0-0.4,0.1-0.6,0.1c-0.4,0-0.7-0.1-1.1-0.2c-0.1,0.6-0.3,1.2-0.8,1.7c-0.5,0.6-1.1,1.1-1.7,1.5
				c-0.6,0.5-1.3,0.9-2,1.2c-0.4,0.2-0.8,0.3-1.3,0.3c-0.4,0-0.8-0.1-1.2-0.3c-0.4,0.6-1,1.2-1.6,1.6c-0.8,0.5-1.7,0.8-2.6,0.8
				c-0.9,0-1.7-0.2-2.5-0.7l-3.6-2.2c-0.1,0.4-0.2,0.8-0.4,1.1c-0.5,0.9-1.4,1.6-2.6,1.8C43.2,75.7,43,75.8,42.7,75.8z M39.3,70.7
				C39.4,70.7,39.4,70.7,39.3,70.7c0.1,0,0.2,0.1,0.1,0.2c-0.1,0.4-0.1,0.8,0.1,1.2c0.2,0.7,0.8,1.4,1.5,1.8
				c0.5,0.3,1.1,0.4,1.6,0.4c0.2,0,0.4,0,0.6-0.1c0.7-0.1,1.3-0.5,1.6-1.1c0.2-0.4,0.3-0.8,0.3-1.3c0-0.6-0.3-1.2-0.8-1.8
				c-0.2-0.3-0.5-0.5-0.8-0.7c-0.3-0.2-0.6-0.3-0.9-0.3C42.4,69,42.2,69,41.9,69c-0.2,0-0.4,0-0.6,0.1c-0.2,0.1-0.4,0.1-0.6,0.2
				c0,0,0,0-0.1,0c0,0,0,0-0.1,0l-0.1-0.1c-0.1,0-0.1-0.1-0.1-0.2c0.1-0.3,0.2-0.7,0.2-1c0-0.1,0-0.1,0-0.2c-0.1-1.4-1-2.7-2.4-3.2
				c-0.5-0.2-1-0.3-1.6-0.3c-0.3,0-0.7,0.1-1.1,0.2c-0.1,0-0.2,0.1-0.4,0.1c-0.3,0.1-0.5,0.2-0.8,0.4c0,0-0.1,0-0.1,0c0,0,0,0-0.1,0
				c0,0-0.1-0.1-0.1-0.1c0-0.1,0-0.3,0-0.4c0-0.2,0-0.3,0-0.5c0-0.1,0-0.2-0.1-0.4c-0.4-1.5-1.8-2.6-3.4-2.6c-0.2,0-0.4,0-0.6,0
				c-0.2,0-0.4,0.1-0.6,0.2c-0.2,0.1-0.4,0.2-0.6,0.3c0,0,0,0-0.1,0s-0.1,0-0.1,0c0,0-0.1-0.1,0-0.2c0-0.2,0.1-0.4,0.1-0.6
				c0-0.2,0-0.5-0.1-0.7c-0.3-1.3-1.5-2.3-2.9-2.3c-0.5,0-1,0.1-1.4,0.3c-0.4,0.2-0.7,0.4-0.9,0.8c-0.4,0.5-0.7,1.2-0.7,1.9
				c0,1.6,1.3,3,3,3c0,0,0,0,0,0c0,0,0.1,0,0.1,0c0.4,0,0.8-0.1,1.2-0.3c0,0,0,0,0.1,0c0,0,0.1,0,0.1,0c0,0,0.1,0.1,0,0.2
				c-0.1,0.3-0.1,0.6-0.1,0.9c0,0.1,0,0.2,0,0.3c0.2,1.8,1.7,3.1,3.5,3.1c0.3,0,0.7-0.1,1-0.2c0.4-0.1,0.8-0.3,1.1-0.6
				c0,0,0.1,0,0.1,0c0,0,0,0,0.1,0c0,0,0.1,0.1,0.1,0.1c0,0.4,0,0.8,0.1,1.2c0,0.2,0.1,0.3,0.2,0.4c0.4,0.9,1.2,1.6,2.1,2
				c0.5,0.2,1,0.3,1.6,0.3c0.3,0,0.7,0,1-0.1C38.5,71.1,38.9,70.9,39.3,70.7C39.3,70.7,39.3,70.7,39.3,70.7z M50.9,73.6
				c0.5,0.3,1.1,0.5,1.7,0.5c0.6,0,1.2-0.2,1.7-0.5c0.5-0.4,1-0.8,1.3-1.4L52,68.8c-0.3-0.3-0.3-0.7,0-1c0.1-0.1,0.3-0.2,0.5-0.2
				c0.2,0,0.4,0.1,0.5,0.2l4,3.8c0,0,0.1,0.1,0.1,0.1c0.3,0.2,0.6,0.4,1,0.4c0.2,0,0.4-0.1,0.6-0.2c0.6-0.3,1.2-0.7,1.8-1.1
				c0.6-0.4,1.1-0.9,1.6-1.3c0.3-0.2,0.4-0.6,0.4-1c0-0.4-0.2-0.7-0.4-1l-5-4.6c-0.1-0.1-0.2-0.3-0.2-0.5c0-0.2,0.1-0.4,0.2-0.5
				c0.1-0.2,0.3-0.2,0.5-0.2c0.2,0,0.3,0.1,0.5,0.2l1.2,1.1l4.5,4.1c0.3,0.3,0.8,0.5,1.3,0.5c0.1,0,0.2,0,0.3,0
				c0.9-0.2,1.8-0.6,2.5-1.2c0.6-0.5,1.1-1.2,1.4-2c0.3-0.7,0.1-1.5-0.4-2l-6.3-6.3c-0.3-0.3-0.3-0.7,0-1c0.1-0.1,0.3-0.2,0.5-0.2
				s0.4,0.1,0.5,0.2l6.2,6.2c0.3,0.3,0.8,0.5,1.2,0.5c0.3,0,0.6-0.1,0.8-0.2c0.6-0.3,1.1-0.8,1.6-1.3c0.7-0.7,1.2-1.5,1.5-2.5
				c0.1-0.5,0.1-0.8-0.1-1.2c-2.3-4.7-5.4-8.8-9.5-12.1c-1.3-1.1-2.7-2.1-4.2-3c-2.8-1.8-5.9-3.3-9.2-4.6c-0.5-0.1-1.1-0.1-1.7-0.1
				c-1.3,0-2.3,0.2-2.8,0.3c-0.2,0-0.7,0.2-1.3,0.4l-0.4,0.1c-6,1.8-9.5,2.6-11.9,2.6c-1.5,0-2.4-0.3-3-0.9
				c-0.5-0.6-0.7-1.3-0.6-2.1c0.2-1.2,1-2.6,2.6-4.2c-1.8-0.1-3.2-0.1-4.2-0.1l-6.9,23c0,0.2-0.1,0.3-0.2,0.4l2,1.2
				c0.8-0.5,1.6-0.8,2.6-0.8c2,0,3.7,1.3,4.2,3.2c0.2,0,0.4,0,0.6,0c2.1,0,4,1.4,4.7,3.4c0.4-0.1,0.8-0.1,1.2-0.1
				c0.7,0,1.4,0.1,2.1,0.4c1.8,0.8,3.1,2.4,3.3,4.3c0.8,0,1.6,0.2,2.3,0.6c1.1,0.6,1.9,1.7,2.2,2.9L50.9,73.6z M81.6,26.3
				c-0.2,0-0.4,0-0.6,0.1l-6.8,2.4c-0.9,0.3-1.4,1.3-1.1,2.2l0.2,0.7l0.4,1.3l0.2,0.6l6.5,21.7c0.1,0.2,0.1,0.3,0.2,0.5
				c0.2,0.3,0.4,0.5,0.7,0.6c0.2,0.1,0.5,0.2,0.8,0.2c0.2,0,0.4,0,0.6-0.1l6.8-2.4c0.9-0.3,1.4-1.3,1.1-2.2l-7.3-24.4
				c-0.1-0.5-0.4-0.8-0.9-1C82.1,26.4,81.8,26.3,81.6,26.3z M19,26.2c-0.3,0-0.5,0.1-0.8,0.2c-0.4,0.2-0.7,0.6-0.9,1.1L9.9,51.8
				c-0.3,0.9,0.2,1.8,1.1,2.2l6.8,2.4c0.2,0.1,0.4,0.1,0.6,0.1c0.3,0,0.5-0.1,0.8-0.2c0.5-0.2,0.8-0.6,0.9-1.1l7.2-24l0.1-0.4
				c0.3-0.9-0.2-1.8-1.1-2.1l-6.8-2.4C19.3,26.2,19.1,26.2,19,26.2z M76.4,56.3c0.9,0,1.8-0.2,2.6-0.5c0,0-6.9-23-6.9-23
				c-4.3-1.2-14.2-4.1-16.7-5.4c-1.4-0.8-3.7-1.2-6.1-1.2c-3.4,0-6.6,0.8-9,2.3c-1.6,1-3.2,2.1-4.5,3.2c-0.4,0.3-0.8,0.7-1.2,1
				c-1.8,1.7-3,3.3-3.1,4.3c0,0.4,0,0.7,0.2,0.9c0.3,0.3,0.9,0.5,1.8,0.5c3.2,0,9.2-1.8,11.5-2.5l0.1,0c1-0.3,1.5-0.5,1.8-0.5
				c0.3-0.1,0.8-0.2,1.4-0.2c0.6-0.1,1.2-0.1,1.8-0.1c0.7,0,1.4,0,2,0.1c3.6,0.5,6.8,2,9.7,4.7l0.1,0.1c6.2,4,10.9,9.3,14,15.7
				c0.1,0.2,0.2,0.4,0.2,0.6C76.2,56.3,76.3,56.3,76.4,56.3z"/>
			<path class="st1" d="M18.9,24.9c0.3,0,0.7,0.1,1,0.2l6.8,2.4c1.5,0.5,2.4,2.2,1.9,3.8l0,0c1.3,0,3.1,0,5.4,0.2
				c1.7-1.5,3.7-3,5.5-4.1c2.9-1.8,6.5-2.5,9.7-2.5c2.8,0,5.2,0.5,6.7,1.3c2.2,1.2,11.4,3.9,15.8,5.1l0,0c-0.5-1.6,0.4-3.2,1.9-3.8
				l6.8-2.4c0.3-0.1,0.7-0.2,1-0.2c0.5,0,0.9,0.1,1.4,0.3c0.8,0.4,1.3,1,1.6,1.9l7.3,24.4c0.5,1.6-0.4,3.2-1.9,3.8l-6.8,2.4
				c-0.3,0.1-0.7,0.2-1,0.2c-0.5,0-0.9-0.1-1.4-0.3c-0.3-0.2-0.7-0.4-0.9-0.7c-1.2,0.5-2.3,0.8-3.4,0.8c-0.1,0-0.2,0-0.3,0
				c0,0.1-0.1,0.2-0.1,0.4c-0.4,1.1-1,2.1-1.7,2.9c-0.6,0.6-1.2,1.1-1.9,1.5c-0.5,0.3-1,0.4-1.5,0.4c-0.1,0-0.2,0-0.3,0
				c0.2,0.6,0.1,1.3-0.2,1.9c-0.4,1-1,1.8-1.8,2.5c-0.9,0.8-1.9,1.3-3.1,1.5c-0.2,0-0.4,0.1-0.6,0.1c-0.4,0-0.8-0.1-1.2-0.2
				c0,0.7-0.3,1.3-0.8,1.7c-0.5,0.5-1.1,1-1.7,1.5c-0.6,0.5-1.3,0.9-1.9,1.2c-0.4,0.2-0.8,0.3-1.2,0.3c-0.4,0-0.9-0.1-1.3-0.3
				c-0.3,0.6-0.9,1.2-1.6,1.7c-0.8,0.5-1.6,0.8-2.5,0.8c-0.8,0-1.6-0.2-2.4-0.7l-3.8-2.3c-0.1,0.4-0.2,0.9-0.4,1.3
				c-0.5,0.9-1.4,1.5-2.5,1.7c-0.3,0.1-0.6,0.1-0.9,0.1c-0.8,0-1.6-0.2-2.3-0.6c-1-0.6-1.7-1.5-2-2.5c-0.4,0.1-0.8,0.2-1.2,0.2
				c-0.7,0-1.4-0.1-2-0.4c-1.2-0.5-2.2-1.5-2.8-2.7c-0.1-0.2-0.2-0.3-0.2-0.5c-0.4,0.1-0.8,0.2-1.3,0.2c-2.4,0-4.4-1.8-4.7-4.2
				c-0.1,0-0.1,0-0.2,0c-2.4,0-4.3-1.9-4.3-4.3c0-1,0.3-1.8,0.9-2.5l-2-1.2c-0.2,0.2-0.4,0.3-0.6,0.4c-0.4,0.2-0.9,0.3-1.4,0.3
				c-0.4,0-0.7-0.1-1-0.2l-6.8-2.4C9,54.7,8.2,53,8.6,51.4L16,27.1c0.2-0.8,0.8-1.5,1.5-1.9C18,25,18.5,24.9,18.9,24.9 M18.4,56.6
				c0.3,0,0.6-0.1,0.9-0.2c0,0,0,0,0,0c0.5-0.2,0.8-0.6,0.9-1.1l7.2-24l0.1-0.4c0.3-1-0.2-2-1.2-2.3l-6.8-2.4
				c-0.2-0.1-0.4-0.1-0.6-0.1c-0.3,0-0.6,0.1-0.9,0.2c-0.5,0.2-0.8,0.6-1,1.1L9.8,51.8c-0.3,1,0.2,2,1.2,2.3l6.8,2.4
				C18,56.6,18.2,56.6,18.4,56.6 M33.5,38.6c3.2,0,9.3-1.8,11.6-2.5c0.9-0.3,1.5-0.5,1.8-0.5s0.8-0.2,1.4-0.2
				c0.5-0.1,1.1-0.1,1.7-0.1c0.6,0,1.3,0,2,0.1c2.8,0.3,6.2,1.5,9.6,4.7l0.1,0.1c5.6,3.6,10.6,8.6,14,15.6c0.1,0.2,0.2,0.4,0.2,0.6
				c0.1,0,0.2,0,0.4,0c0.9,0,1.9-0.2,2.8-0.6c0,0,0-0.1-0.1-0.2l-6.9-23c-4.1-1.1-14.3-4.1-16.8-5.4c-1.4-0.7-3.7-1.2-6.2-1.2
				c-3,0-6.4,0.7-9.1,2.3c-1.7,1-3.2,2.1-4.5,3.2c-0.4,0.4-0.8,0.7-1.2,1.1c-1.8,1.7-3,3.3-3.1,4.4c-0.1,0.4,0,0.8,0.3,1
				C31.9,38.5,32.6,38.6,33.5,38.6 M82.1,56.7c0.2,0,0.4,0,0.6-0.1l6.8-2.4c0.9-0.3,1.5-1.4,1.2-2.3l-7.3-24.4
				c-0.2-0.5-0.5-0.9-0.9-1.1c-0.3-0.1-0.6-0.2-0.9-0.2c-0.2,0-0.4,0-0.6,0.1l-6.8,2.4C73.2,29,72.7,30,72.9,31l0.2,0.7l0.4,1.3
				l0.2,0.6l6.5,21.7c0.1,0.2,0.1,0.3,0.2,0.5c0.2,0.3,0.4,0.5,0.7,0.6C81.5,56.6,81.8,56.7,82.1,56.7 M23.3,57.4
				c0.7-0.5,1.6-0.9,2.6-0.9c2,0,3.7,1.4,4.1,3.2c0.2,0,0.5-0.1,0.8-0.1c2.2,0,4,1.5,4.6,3.4c0.4-0.1,0.8-0.2,1.3-0.2
				c0.7,0,1.4,0.1,2,0.4c1.9,0.8,3.1,2.5,3.2,4.3c0,0,0,0,0,0c0.8,0,1.6,0.2,2.3,0.6c1.1,0.7,1.9,1.7,2.1,2.8l4.4,2.6
				c0.6,0.3,1.2,0.5,1.8,0.5c0.6,0,1.3-0.2,1.8-0.5c0.7-0.5,1.1-1,1.4-1.5l-3.7-3.6c-0.2-0.2-0.2-0.6,0-0.8c0.1-0.1,0.3-0.2,0.4-0.2
				c0.1,0,0.3,0.1,0.4,0.2l4,3.8c0,0,0,0,0.1,0.1l0,0c0.3,0.3,0.7,0.4,1.1,0.4c0.2,0,0.5-0.1,0.7-0.2c0.6-0.3,1.2-0.7,1.8-1.1
				c0.6-0.4,1.1-0.9,1.6-1.4c0.3-0.3,0.4-0.7,0.4-1.1c0-0.4-0.2-0.8-0.5-1.1c0,0,0,0,0,0l-3.8-3.5c0,0,0,0,0,0L57,62.7
				c-0.2-0.2-0.2-0.6,0-0.8c0.1-0.1,0.3-0.2,0.4-0.2c0.1,0,0.3,0,0.4,0.2L59,63l3.8,3.5l0.7,0.6c0.4,0.3,0.9,0.5,1.4,0.5
				c0.1,0,0.2,0,0.4,0c1-0.2,1.8-0.6,2.6-1.2c0.7-0.6,1.2-1.3,1.5-2.1c0.3-0.8,0.1-1.6-0.4-2.2l-4.4-4.4l-2-2
				c-0.2-0.2-0.2-0.6,0-0.8c0.1-0.1,0.3-0.2,0.4-0.2s0.3,0.1,0.4,0.2l2,2l4.2,4.2c0.4,0.4,0.8,0.5,1.3,0.5c0.3,0,0.6-0.1,0.9-0.2
				c0.6-0.4,1.2-0.8,1.7-1.3c0.7-0.7,1.2-1.6,1.5-2.5c0,0,0-0.1,0-0.1c0.1-0.4,0.1-0.8-0.1-1.2l0,0c-2.4-5-5.8-9-9.5-12.2
				c-1.3-1.1-2.7-2.1-4.2-3c-3-1.9-6.2-3.4-9.3-4.6c-0.6-0.1-1.2-0.1-1.7-0.1c-1.3,0-2.3,0.2-2.8,0.3c-0.3,0.1-0.9,0.3-1.8,0.5
				c-5.1,1.5-9.2,2.6-11.9,2.6c-1.3,0-2.3-0.3-2.9-0.9c-0.5-0.5-0.7-1.2-0.6-2c0.2-1.3,1.2-2.8,2.7-4.3c-2-0.1-3.5-0.2-4.6-0.2
				l-7,23.1c-0.1,0.2-0.1,0.3-0.2,0.5L23.3,57.4 M25.9,63.9c0.1,0,0.1,0,0.2,0c0.5,0,0.9-0.1,1.2-0.3c-0.1,0.3-0.1,0.6-0.1,0.9
				c0,0.1,0,0.2,0,0.4c0,0,0,0,0,0c0.2,1.8,1.7,3.2,3.6,3.2c0.4,0,0.7-0.1,1-0.2c0.4-0.1,0.8-0.3,1.2-0.6c0,0.4,0,0.9,0.1,1.3
				c0,0.2,0.1,0.3,0.2,0.5c0.4,0.9,1.2,1.7,2.2,2.1c0.5,0.2,1.1,0.3,1.6,0.3c0.3,0,0.7,0,1-0.1c0.4-0.1,0.9-0.3,1.2-0.6
				c-0.1,0.4-0.1,0.9,0.1,1.3c0.2,0.8,0.8,1.4,1.5,1.9c0.5,0.3,1.1,0.5,1.7,0.5c0.2,0,0.4,0,0.6-0.1c0.8-0.2,1.3-0.6,1.7-1.2
				c0.2-0.4,0.3-0.9,0.3-1.3c0-0.6-0.3-1.3-0.8-1.8c-0.2-0.3-0.5-0.5-0.9-0.7c-0.3-0.2-0.6-0.3-0.9-0.4c-0.2-0.1-0.5-0.1-0.8-0.1
				c0,0-0.1,0-0.1,0c-0.2,0-0.4,0-0.5,0.1c-0.2,0.1-0.4,0.1-0.6,0.2l-0.1-0.1c0.1-0.3,0.2-0.7,0.2-1c0-0.1,0-0.1,0-0.2
				c0,0,0-0.1,0-0.1c-0.1-1.4-1-2.7-2.5-3.3c-0.5-0.2-1.1-0.3-1.6-0.3c-0.4,0-0.8,0.1-1.1,0.2c-0.1,0-0.3,0.1-0.4,0.1
				c-0.3,0.1-0.6,0.3-0.8,0.4c0-0.1,0-0.3,0-0.4c0-0.2,0-0.3,0-0.5c0-0.1,0-0.3-0.1-0.4c-0.4-1.5-1.8-2.7-3.5-2.7
				c-0.2,0-0.4,0-0.6,0.1c-0.2,0-0.4,0.1-0.6,0.2c-0.2,0.1-0.4,0.2-0.6,0.3c0-0.2,0.1-0.4,0.1-0.6v0c0-0.2,0-0.5-0.1-0.7
				c-0.3-1.4-1.6-2.4-3-2.4c-0.5,0-1,0.1-1.5,0.4c-0.4,0.2-0.7,0.5-1,0.8c-0.4,0.5-0.7,1.2-0.7,2C22.8,62.5,24.1,63.9,25.9,63.9
				 M18.9,24.6L18.9,24.6c-0.5,0-1,0.1-1.5,0.4c-0.8,0.4-1.4,1.1-1.7,2L8.4,51.3c-0.5,1.7,0.4,3.5,2.1,4.1l6.8,2.4
				C17.6,58,18,58,18.4,58c0.5,0,1-0.1,1.5-0.4c0.2-0.1,0.4-0.2,0.5-0.3l1.6,1c-0.5,0.7-0.7,1.6-0.7,2.5c0,2.5,2,4.5,4.5,4.6
				c0.4,2.4,2.5,4.2,5,4.2c0.4,0,0.8,0,1.1-0.1c0,0.1,0.1,0.2,0.1,0.3c0.6,1.3,1.6,2.3,2.9,2.8c0.7,0.3,1.4,0.4,2.2,0.4
				c0.4,0,0.7,0,1-0.1c0.4,1,1.1,1.8,2.1,2.4c0.8,0.4,1.6,0.7,2.4,0.7c0.3,0,0.6,0,0.9-0.1c1.2-0.2,2.1-0.9,2.7-1.9
				c0.2-0.3,0.3-0.6,0.4-0.9l3.4,2.1c0.8,0.4,1.6,0.7,2.5,0.7c1,0,1.9-0.3,2.7-0.8c0.6-0.4,1.1-1,1.5-1.6c0.4,0.2,0.8,0.2,1.2,0.2
				c0.5,0,0.9-0.1,1.4-0.3c0.7-0.4,1.4-0.8,2-1.2c0.6-0.4,1.2-0.9,1.8-1.5c0.4-0.4,0.7-1,0.8-1.6c0.3,0.1,0.6,0.1,1,0.1
				c0.2,0,0.4,0,0.6-0.1c1.2-0.2,2.3-0.7,3.3-1.5c0.8-0.7,1.5-1.6,1.9-2.6c0.2-0.6,0.3-1.1,0.2-1.7c0.6,0,1.1-0.2,1.6-0.4
				c0.7-0.4,1.4-1,2-1.6c0.8-0.9,1.4-1.9,1.8-3c0,0,0-0.1,0.1-0.2c0,0,0.1,0,0.1,0c1.2,0,2.3-0.2,3.4-0.7c0.2,0.2,0.5,0.4,0.8,0.6
				c0.5,0.2,1,0.4,1.5,0.4c0.4,0,0.8-0.1,1.1-0.2l6.8-2.4c1.7-0.6,2.6-2.4,2.1-4.1l-7.3-24.4c-0.3-0.9-0.9-1.6-1.7-2
				c-0.5-0.2-1-0.4-1.5-0.4c-0.4,0-0.8,0.1-1.1,0.2l-6.8,2.4c-1.5,0.5-2.4,2.1-2.2,3.6c-5-1.4-13.2-3.8-15.3-5
				c-1.6-0.9-4.2-1.4-6.9-1.4c-3.7,0-7.2,0.9-9.8,2.5c-2,1.2-3.9,2.7-5.5,4C31.9,31,30.2,31,29,31c0.3-1.6-0.6-3.2-2.2-3.8l-6.8-2.4
				C19.7,24.7,19.3,24.6,18.9,24.6L18.9,24.6L18.9,24.6z M18.4,56.3c-0.2,0-0.4,0-0.5-0.1l-6.8-2.4c-0.8-0.3-1.2-1.2-1-2l7.3-24.4
				c0.1-0.4,0.4-0.8,0.8-1c0.2-0.1,0.5-0.2,0.7-0.2c0.2,0,0.4,0,0.5,0.1l6.8,2.4c0.8,0.3,1.3,1.2,1,2l-0.1,0.4l-7.2,24
				c-0.1,0.4-0.4,0.8-0.8,1c0,0,0,0,0,0C18.9,56.3,18.6,56.3,18.4,56.3L18.4,56.3z M33.5,38.3c-1.1,0-1.5-0.2-1.7-0.4
				c-0.2-0.2-0.3-0.5-0.2-0.8c0.1-1,1.3-2.5,3.1-4.2c0.3-0.3,0.7-0.7,1.2-1c1.3-1.1,2.9-2.2,4.5-3.2c2.4-1.5,5.5-2.3,8.9-2.3
				c2.4,0,4.7,0.4,6.1,1.2c2.5,1.3,12.4,4.2,16.7,5.4l6.9,22.8c-0.8,0.3-1.6,0.5-2.5,0.5c-0.1,0-0.1,0-0.1,0
				c-0.1-0.2-0.1-0.3-0.2-0.5C73,49.2,68.3,43.9,62,39.9l-0.1-0.1c-2.9-2.7-6.1-4.3-9.8-4.7c-0.7-0.1-1.4-0.1-2-0.1
				c-0.6,0-1.2,0-1.8,0.1c-0.6,0.1-1.1,0.2-1.4,0.2c-0.3,0.1-0.9,0.2-1.9,0.5l-0.1,0C42.7,36.5,36.7,38.3,33.5,38.3L33.5,38.3z
				 M82.1,56.4c-0.2,0-0.5-0.1-0.7-0.2c-0.3-0.1-0.4-0.3-0.6-0.5c-0.1-0.2-0.2-0.3-0.2-0.5L74,33.6L73.8,33l-0.4-1.3l-0.2-0.7
				c-0.2-0.8,0.2-1.7,1-2l6.8-2.4c0.2-0.1,0.4-0.1,0.5-0.1c0.3,0,0.5,0.1,0.7,0.2c0.4,0.2,0.7,0.5,0.8,1L90.4,52
				c0.2,0.8-0.2,1.7-1,2l-6.8,2.4C82.5,56.4,82.3,56.4,82.1,56.4L82.1,56.4z M21.5,56c0-0.1,0.1-0.2,0.1-0.3l6.9-23
				c0.9,0,2.2,0,3.8,0.1c-1.4,1.5-2.2,2.9-2.4,4c-0.1,0.8,0.1,1.6,0.6,2.2c0.6,0.7,1.6,1,3.1,1c2.4,0,6-0.8,12-2.6l0.4-0.1
				c0.6-0.2,1.1-0.3,1.3-0.4c0.5-0.1,1.5-0.3,2.8-0.3c0.5,0,1.1,0,1.7,0.1c3.3,1.2,6.4,2.8,9.2,4.5c1.5,1,2.8,1.9,4.1,3
				c4,3.3,7.2,7.4,9.4,12.1c0,0,0,0,0,0c0.1,0.3,0.2,0.7,0.1,1l0.3,0.1l-0.3-0.1l0,0.1c-0.3,0.9-0.8,1.7-1.4,2.4
				c-0.5,0.5-1,0.9-1.6,1.3c-0.2,0.1-0.5,0.2-0.8,0.2c-0.4,0-0.8-0.2-1.1-0.5l-4.2-4.2l-2-2c-0.2-0.2-0.4-0.2-0.6-0.2
				s-0.5,0.1-0.6,0.2c-0.3,0.3-0.3,0.9,0,1.2l2,2l4.4,4.4c0.5,0.5,0.7,1.2,0.4,1.9c-0.3,0.8-0.8,1.4-1.4,2c-0.7,0.6-1.5,1-2.4,1.2
				c-0.1,0-0.2,0-0.3,0c-0.4,0-0.9-0.2-1.2-0.5l-0.7-0.6l-3.8-3.5l-1.2-1.1c-0.2-0.2-0.4-0.2-0.6-0.2c-0.2,0-0.5,0.1-0.6,0.3
				c-0.2,0.2-0.2,0.4-0.2,0.6c0,0.2,0.1,0.4,0.3,0.6L58,64l3.8,3.5c0,0,0,0,0,0l0,0c0,0,0,0,0,0c0.2,0.2,0.4,0.6,0.4,0.9
				c0,0.3-0.1,0.6-0.3,0.9c-0.5,0.5-1,0.9-1.5,1.3c-0.6,0.4-1.2,0.8-1.8,1.1c-0.2,0.1-0.4,0.1-0.5,0.1c-0.3,0-0.6-0.1-0.9-0.3
				c0,0,0,0,0,0s0,0,0,0l-3.9-3.8c-0.2-0.2-0.4-0.2-0.6-0.2c-0.2,0-0.5,0.1-0.6,0.3c-0.3,0.3-0.3,0.9,0,1.2l3.5,3.4
				c-0.3,0.5-0.7,0.9-1.2,1.2c-0.5,0.3-1,0.5-1.6,0.5c-0.6,0-1.2-0.2-1.7-0.5l-4.3-2.6c-0.3-1.2-1.1-2.2-2.2-2.9
				c-0.7-0.4-1.5-0.6-2.2-0.7c-0.2-1.8-1.5-3.5-3.4-4.3c-0.7-0.3-1.4-0.4-2.2-0.4c-0.4,0-0.7,0-1.1,0.1c-0.7-2-2.6-3.4-4.8-3.4
				c-0.2,0-0.4,0-0.5,0c-0.6-1.9-2.3-3.2-4.4-3.2c-0.9,0-1.8,0.3-2.6,0.8L21.5,56L21.5,56z M25.9,63.6
				C25.9,63.6,25.9,63.6,25.9,63.6c-1.6,0-2.8-1.3-2.8-2.8c0-0.7,0.2-1.3,0.6-1.8c0.2-0.3,0.5-0.5,0.9-0.7c0.4-0.2,0.9-0.3,1.3-0.3
				c1.3,0,2.5,0.9,2.7,2.2c0,0.2,0.1,0.4,0.1,0.6c0,0.2,0,0.4-0.1,0.6c0,0.1,0,0.2,0.1,0.3c0,0,0.1,0,0.2,0c0,0,0.1,0,0.1,0
				c0.2-0.1,0.3-0.2,0.6-0.3c0.2-0.1,0.4-0.1,0.5-0.2c0.2,0,0.4,0,0.6,0c1.5,0,2.8,1,3.2,2.5c0,0.1,0.1,0.2,0.1,0.4
				c0,0.1,0,0.3,0,0.5c0,0.1,0,0.2,0,0.4c0,0.1,0,0.2,0.1,0.3c0,0,0.1,0,0.1,0c0.1,0,0.1,0,0.2-0.1c0.2-0.2,0.5-0.3,0.7-0.4
				c0.1,0,0.2-0.1,0.4-0.1c0.3-0.1,0.7-0.2,1-0.2c0.5,0,1,0.1,1.5,0.3c1.3,0.5,2.2,1.7,2.3,3.1c0,0,0,0,0,0.1c0,0.1,0,0.1,0,0.2
				c0,0.3,0,0.6-0.2,0.9c0,0.1,0,0.3,0.1,0.3l0.1,0.1c0,0,0.1,0,0.1,0s0.1,0,0.1,0c0.1-0.1,0.3-0.1,0.5-0.2c0.2,0,0.3,0,0.5,0
				c0,0,0.1,0,0.1,0c0.2,0,0.5,0,0.7,0.1c0.3,0.1,0.6,0.2,0.9,0.3c0.3,0.2,0.6,0.4,0.8,0.6c0.4,0.5,0.7,1.1,0.7,1.7
				c0,0.4-0.1,0.8-0.3,1.2c-0.3,0.5-0.8,0.9-1.5,1.1c-0.2,0-0.4,0.1-0.6,0.1c-0.5,0-1.1-0.2-1.5-0.4c-0.7-0.4-1.2-1-1.4-1.7
				c-0.1-0.4-0.2-0.8-0.1-1.2c0-0.1,0-0.2-0.1-0.3c0,0-0.1-0.1-0.2-0.1s-0.1,0-0.2,0.1c-0.3,0.2-0.7,0.4-1.1,0.5
				c-0.3,0.1-0.6,0.1-0.9,0.1c-0.5,0-1-0.1-1.5-0.3c-0.9-0.4-1.6-1.1-2-1.9c-0.1-0.1-0.1-0.3-0.2-0.4c-0.1-0.4-0.2-0.8-0.1-1.2
				c0-0.1,0-0.2-0.2-0.3c0,0-0.1,0-0.1,0c-0.1,0-0.1,0-0.2,0.1c-0.3,0.2-0.7,0.4-1.1,0.6c-0.3,0.1-0.6,0.2-1,0.2
				c-1.7,0-3.1-1.3-3.3-3c0-0.1,0-0.2,0-0.3c0-0.3,0-0.6,0.1-0.8c0-0.1,0-0.2-0.1-0.3c0,0-0.1-0.1-0.2-0.1c0,0-0.1,0-0.1,0
				C26.8,63.5,26.4,63.6,25.9,63.6C26,63.6,25.9,63.6,25.9,63.6L25.9,63.6z M27.3,63.8L27.3,63.8L27.3,63.8L27.3,63.8z"/>
		</g>
		<g>
			<path class="st1" d="M15.1,52.1c-0.1,0-0.2,0-0.3,0c-0.7-0.2-1.2-0.9-1.1-1.6c0.1-0.6,0.7-1.1,1.3-1.1c0.1,0,0.2,0,0.3,0
				c0.4,0.1,0.7,0.3,0.9,0.6s0.3,0.7,0.2,1C16.3,51.7,15.7,52.1,15.1,52.1L15.1,52.1z"/>
			<path class="st1" d="M15.1,49.5c0.1,0,0.2,0,0.2,0c0.7,0.1,1.1,0.8,1,1.4c-0.1,0.6-0.6,1-1.2,1c-0.1,0-0.2,0-0.2,0
				c-0.7-0.1-1.1-0.8-1-1.4C14,49.9,14.5,49.5,15.1,49.5 M15.1,49.2c-0.7,0-1.3,0.5-1.5,1.2c-0.2,0.8,0.4,1.6,1.2,1.8
				c0.1,0,0.2,0,0.3,0c0.7,0,1.3-0.5,1.5-1.2c0.1-0.4,0-0.8-0.2-1.1c-0.2-0.3-0.6-0.6-1-0.6C15.3,49.3,15.2,49.2,15.1,49.2
				L15.1,49.2z"/>
		</g>
		<g>
			<path class="st1" d="M84.7,52.1c-0.1,0-0.2,0-0.3,0c-0.7-0.2-1.2-0.9-1.1-1.6c0.1-0.6,0.7-1.1,1.3-1.1c0.1,0,0.2,0,0.3,0
				c0.4,0.1,0.7,0.3,0.9,0.6c0.2,0.3,0.3,0.7,0.2,1C85.9,51.7,85.3,52.1,84.7,52.1L84.7,52.1z"/>
			<path class="st1" d="M84.7,49.5c0.1,0,0.2,0,0.2,0c0.7,0.1,1.1,0.8,1,1.4c-0.1,0.6-0.6,1-1.2,1c-0.1,0-0.2,0-0.2,0
				c-0.7-0.1-1.1-0.8-1-1.4C83.6,49.9,84.1,49.5,84.7,49.5 M84.7,49.2c-0.7,0-1.3,0.5-1.5,1.2c-0.2,0.8,0.4,1.6,1.2,1.8
				c0.1,0,0.2,0,0.3,0c0.7,0,1.3-0.5,1.5-1.2c0.1-0.4,0-0.8-0.2-1.1c-0.2-0.3-0.6-0.6-1-0.6C84.9,49.3,84.8,49.2,84.7,49.2
				L84.7,49.2z"/>
		</g>
	</g>
</g>
</svg>
