<?xml version="1.0" encoding="utf-8"?>
<!-- Generator: Adobe Illustrator 24.3.0, SVG Export Plug-In . SVG Version: 6.00 Build 0)  -->
<svg version="1.1" id="Layer_1" xmlns="http://www.w3.org/2000/svg" xmlns:xlink="http://www.w3.org/1999/xlink" x="0px" y="0px"
	 viewBox="0 0 100.5 100.5" style="enable-background:new 0 0 100.5 100.5;" xml:space="preserve">
<style type="text/css">
	.st0{fill:#EF383C;}
	.st1{fill:#FFFFFF;}
</style>
<g>
	<path class="st0" d="M100.25,50.25L100.25,50.25c0,27.61-22.39,50-50,50h0c-27.61,0-50-22.39-50-50v0c0-27.61,22.39-50,50-50h0
		C77.86,0.25,100.25,22.64,100.25,50.25z"/>
	<g>
		<path class="st1" d="M50.25,14.12c0,0-12.38,12.84-32.27,10.09c0,0,0,15.79,0,19.86c0,6.7,3.47,32.54,32.27,44.31
			c28.8-11.77,32.27-37.61,32.27-44.31c0-4.07,0-19.86,0-19.86C62.63,26.96,50.25,14.12,50.25,14.12z M78.23,44.07
			c0,1.13-0.33,27.36-27.98,39.65C22.6,71.42,22.27,45.2,22.27,44.07v-15.2c0.42,0.01,0.85,0.02,1.27,0.02
			c12.86,0,22.17-5.63,26.71-9.11c4.53,3.48,13.85,9.11,26.71,9.11c0.42,0,0.84-0.01,1.27-0.02V44.07z"/>
		<path class="st1" d="M56.83,44.66v-7.42H43.67v7.42h-7.42v13.16h7.42v7.42h13.16v-7.42h7.42V44.66H56.83z M59.96,53.53h-7.42v7.42
			h-4.58v-7.42h-7.42v-4.58h7.42v-7.42h4.58v7.42h7.42V53.53z"/>
	</g>
</g>
</svg>
