<?xml version="1.0" encoding="utf-8"?>
<!-- Generator: Adobe Illustrator 24.3.0, SVG Export Plug-In . SVG Version: 6.00 Build 0)  -->
<svg version="1.1" id="Layer_1" xmlns="http://www.w3.org/2000/svg" xmlns:xlink="http://www.w3.org/1999/xlink" x="0px" y="0px"
	 viewBox="0 0 100.5 100.5" style="enable-background:new 0 0 100.5 100.5;" xml:space="preserve">
<style type="text/css">
	.st0{fill:#9D071C;}
	.st1{fill:#FFFFFF;}
</style>
<g>
	<path class="st0" d="M100.2,50.2L100.2,50.2c0,27.6-22.4,50-50,50l0,0c-27.6,0-50-22.4-50-50l0,0c0-27.6,22.4-50,50-50l0,0
		C77.9,0.2,100.2,22.6,100.2,50.2z"/>
	<g>
		<path class="st1" d="M50.2,14.1c0,0-12.4,12.8-32.3,10.1c0,0,0,15.8,0,19.9c0,6.7,3.5,32.5,32.3,44.3
			c28.8-11.8,32.3-37.6,32.3-44.3c0-4.1,0-19.9,0-19.9C62.6,27,50.2,14.1,50.2,14.1z M78.2,44.1c0,1.1-0.3,27.4-28,39.7
			c-27.7-12.3-28-38.5-28-39.7V28.9c0.4,0,0.9,0,1.3,0c12.9,0,22.2-5.6,26.7-9.1c4.5,3.5,13.8,9.1,26.7,9.1c0.4,0,0.8,0,1.3,0
			C78.2,28.9,78.2,44.1,78.2,44.1z"/>
		<path class="st1" d="M56.8,44.7v-7.4H43.7v7.4h-7.4v13.2h7.4v7.4h13.2v-7.4h7.4V44.7H56.8z M60,53.5h-7.4v7.4H48v-7.4h-7.4v-4.6
			H48v-7.4h4.6v7.4H60V53.5z"/>
	</g>
</g>
</svg>
