<?xml version="1.0" encoding="utf-8"?>
<!-- Generator: Adobe Illustrator 25.2.1, SVG Export Plug-In . SVG Version: 6.00 Build 0)  -->
<svg version="1.1" id="Layer_1" xmlns="http://www.w3.org/2000/svg" xmlns:xlink="http://www.w3.org/1999/xlink" x="0px" y="0px"
	 viewBox="0 0 100.5 100.5" style="enable-background:new 0 0 100.5 100.5;" xml:space="preserve">
<style type="text/css">
	.st0{fill:#9D071C;}
	.st1{fill:#FFFFFF;}
</style>
<g>
	<path class="st0" d="M100.3,50.2L100.3,50.2c0,27.6-22.4,50-50,50h0c-27.6,0-50-22.4-50-50v0c0-27.6,22.4-50,50-50h0
		C77.9,0.2,100.3,22.6,100.3,50.2z"/>
	<g>
		<g>
			<path class="st1" d="M39.9,28.3v51.6H24V34.4L39.9,28.3 M42.2,25l-3.1,1.2l-15.9,6.1l-1.5,0.6v1.6v45.5v2.3H24h15.9h2.3v-2.3
				V28.3V25L42.2,25z"/>
		</g>
	</g>
	<g>
		<g>
			<path class="st1" d="M60.6,34.4l15.9,6.9v38.6H60.6V34.4 M58.3,30.9v3.5v45.5v2.3h2.3h15.9h2.3v-2.3V41.3v-1.5l-1.4-0.6
				l-15.9-6.9L58.3,30.9L58.3,30.9z"/>
		</g>
	</g>
	<g>
		<g>
			<path class="st1" d="M58.2,16v63.9H42.3V16H58.2 M60.5,13.7h-2.3H42.3H40V16v63.9v2.3h2.3h15.9h2.3v-2.3V16V13.7L60.5,13.7z"/>
		</g>
	</g>
	<g>
		<rect x="62.7" y="41.3" class="st1" width="3" height="10.7"/>
		<rect x="67" y="41.3" class="st1" width="3" height="10.7"/>
		<rect x="62.7" y="55.5" class="st1" width="3" height="10.7"/>
	</g>
	<g>
		<rect x="25.6" y="41.3" class="st1" width="3" height="10.7"/>
		<rect x="29.9" y="41.3" class="st1" width="3" height="10.7"/>
		<rect x="29.9" y="55.5" class="st1" width="3" height="10.7"/>
	</g>
	<g>
		<rect x="45.2" y="27.1" class="st1" width="3" height="10.7"/>
		<rect x="45.2" y="41.3" class="st1" width="3" height="10.7"/>
		<rect x="49.5" y="41.3" class="st1" width="3" height="10.7"/>
	</g>
</g>
</svg>
