<?xml version="1.0" encoding="utf-8"?>
<!-- Generator: Adobe Illustrator 25.2.1, SVG Export Plug-In . SVG Version: 6.00 Build 0)  -->
<svg version="1.1" id="Layer_1" xmlns="http://www.w3.org/2000/svg" xmlns:xlink="http://www.w3.org/1999/xlink" x="0px" y="0px"
	 viewBox="0 0 100.5 100.5" style="enable-background:new 0 0 100.5 100.5;" xml:space="preserve">
<style type="text/css">
	.st0{fill:#9D071C;}
	.st1{fill:#FFFFFF;}
</style>
<g>
	<path class="st0" d="M100.5,50.2L100.5,50.2c0,27.6-22.4,50-50,50h0c-27.6,0-50-22.4-50-50v0c0-27.6,22.4-50,50-50h0
		C78.1,0.2,100.5,22.6,100.5,50.2z"/>
	<g>
		<g>
			<path class="st1" d="M50.5,13.1c-8,0-14.4,6.5-14.4,14.4c0,8,6.5,14.4,14.4,14.4c8,0,14.4-6.5,14.4-14.4
				C64.9,19.5,58.5,13.1,50.5,13.1z M50.5,37c-5.3,0-9.6-4.3-9.6-9.6c0-5.3,4.3-9.6,9.6-9.6c5.3,0,9.6,4.3,9.6,9.6
				C60.1,32.7,55.8,37,50.5,37z"/>
			<path class="st1" d="M62.6,42.6c-1.8,1.5-3.9,2.6-6.1,3.3c0.6,0.9,0.7,2,0.4,3L56.1,51c2.3-0.5,4.5-1.4,6.5-2.6
				c1.8,1.5,3.3,3.2,4.5,5.2c1.7,2.9,2.6,6.3,2.6,9.7v13.8c-5.8,3.5-12.4,5.3-19.2,5.3c-6.8,0-13.4-1.8-19.2-5.3V63.4
				c0-3.4,0.9-6.8,2.6-9.7c1.2-2,2.7-3.8,4.5-5.2c2,1.2,4.2,2,6.5,2.6l-0.7-2.1c-0.4-1-0.2-2.1,0.4-3c-2.3-0.7-4.3-1.9-6.1-3.3
				c-7.2,4.2-12,11.9-12,20.8v16.5c6.8,4.8,15.1,7.5,24.1,7.5c9,0,17.3-2.8,24.1-7.5V63.4C74.6,54.5,69.8,46.8,62.6,42.6z"/>
		</g>
		<g>
			<path class="st1" d="M50.5,45.7l2.9,2l-1.1,3.3h-1.8h-1.8l-1.1-3.3L50.5,45.7 M50.5,43.5c-0.5,0-0.9,0.1-1.3,0.4l-2.9,2
				c-0.8,0.6-1.2,1.6-0.8,2.5l1.1,3.3c0.3,0.9,1.2,1.5,2.1,1.5h1.8h1.8c1,0,1.8-0.6,2.1-1.5l1.1-3.3c0.3-0.9,0-1.9-0.8-2.5l-2.9-2
				C51.4,43.6,51,43.5,50.5,43.5L50.5,43.5z"/>
			<path class="st1" d="M52.2,53.1l1.9,22.8L50.5,79l-3.6-3.2l1.9-22.8h1.7H52.2 M52.2,50.9h-1.7h-1.7c-1.2,0-2.2,0.9-2.2,2
				l-1.9,22.8c-0.1,0.7,0.2,1.3,0.7,1.8l3.6,3.2c0.4,0.4,1,0.6,1.5,0.6c0.5,0,1.1-0.2,1.5-0.6l3.6-3.2c0.5-0.5,0.8-1.1,0.7-1.8
				l-1.9-22.8C54.4,51.8,53.4,50.9,52.2,50.9L52.2,50.9z"/>
		</g>
	</g>
</g>
</svg>
