<?xml version="1.0" encoding="utf-8"?>
<!-- Generator: Adobe Illustrator 24.3.0, SVG Export Plug-In . SVG Version: 6.00 Build 0)  -->
<svg version="1.1" id="Layer_1" xmlns="http://www.w3.org/2000/svg" xmlns:xlink="http://www.w3.org/1999/xlink" x="0px" y="0px"
	 viewBox="0 0 100.5 100.5" style="enable-background:new 0 0 100.5 100.5;" xml:space="preserve">
<style type="text/css">
	.st0{fill:#EF383C;}
	.st1{fill:#FFFFFF;}
</style>
<g>
	<path class="st0" d="M100.25,50.25L100.25,50.25c0,27.61-22.39,50-50,50h0c-27.61,0-50-22.39-50-50v0c0-27.61,22.39-50,50-50h0
		C77.86,0.25,100.25,22.64,100.25,50.25z"/>
</g>
<path class="st1" d="M76.24,63.76h-41.7v-3.12h41.7V63.76z M76.24,67.13h-41.7v3.12h41.7V67.13z M82.39,22.63v47.04
	c0,4.53-3.67,8.2-8.2,8.2H24.85c-3.72,0-6.74-3.02-6.74-6.74V31.17h10.46v-8.54H82.39z M24.95,74.57c2,0,3.62-1.62,3.62-3.62V34.47
	h-7.45v36.47c0,2,1.62,3.62,3.62,3.62H24.95z M79.38,25.72h-47.8v5.44v39.97v3.65h42.56c2.89,0,5.23-2.34,5.23-5.23V25.72z
	 M53.77,28.18H34.54v16.11h19.22V28.18z M76.24,28.18h-20.5v3.12h20.5V28.18z M76.24,34.67h-20.5v3.12h20.5V34.67z M76.24,41.16
	h-20.5v3.12h20.5V41.16z M76.24,47.65h-41.7v3.12h41.7V47.65z M76.24,54.15h-41.7v3.12h41.7V54.15z"/>
</svg>
