<?xml version="1.0" encoding="utf-8"?>
<!-- Generator: Adobe Illustrator 24.3.0, SVG Export Plug-In . SVG Version: 6.00 Build 0)  -->
<svg version="1.1" id="Layer_1" xmlns="http://www.w3.org/2000/svg" xmlns:xlink="http://www.w3.org/1999/xlink" x="0px" y="0px"
	 viewBox="0 0 100.5 100.5" style="enable-background:new 0 0 100.5 100.5;" xml:space="preserve">
<style type="text/css">
	.st0{fill:#9D071C;}
	.st1{fill:#FFFFFF;}
</style>
<g>
	<path class="st0" d="M100.2,50.2L100.2,50.2c0,27.6-22.4,50-50,50l0,0c-27.6,0-50-22.4-50-50l0,0c0-27.6,22.4-50,50-50l0,0
		C77.9,0.2,100.2,22.6,100.2,50.2z"/>
</g>
<path class="st1" d="M76.2,63.8H34.5v-3.1h41.7V63.8z M76.2,67.1H34.5v3.1h41.7V67.1z M82.4,22.6v47c0,4.5-3.7,8.2-8.2,8.2H24.9
	c-3.7,0-6.7-3-6.7-6.7v-40h10.5v-8.5C28.6,22.6,82.4,22.6,82.4,22.6z M25,74.6c2,0,3.6-1.6,3.6-3.6V34.5h-7.5v36.5
	c0,2,1.6,3.6,3.6,3.6L25,74.6L25,74.6z M79.4,25.7H31.6v5.4v40v3.7h42.6c2.9,0,5.2-2.3,5.2-5.2L79.4,25.7L79.4,25.7z M53.8,28.2
	H34.5v16.1h19.2L53.8,28.2L53.8,28.2z M76.2,28.2H55.7v3.1h20.5V28.2z M76.2,34.7H55.7v3.1h20.5V34.7z M76.2,41.2H55.7v3.1h20.5
	V41.2z M76.2,47.7H34.5v3.1h41.7V47.7z M76.2,54.2H34.5v3.1h41.7V54.2z"/>
</svg>
