<?xml version="1.0" encoding="utf-8"?>
<!-- Generator: Adobe Illustrator 24.3.0, SVG Export Plug-In . SVG Version: 6.00 Build 0)  -->
<svg version="1.1" id="Layer_1" xmlns="http://www.w3.org/2000/svg" xmlns:xlink="http://www.w3.org/1999/xlink" x="0px" y="0px"
	 viewBox="0 0 100.5 100.5" style="enable-background:new 0 0 100.5 100.5;" xml:space="preserve">
<style type="text/css">
	.st0{fill:#EF383C;}
	.st1{fill:#FFFFFF;}
</style>
<g>
	<path class="st0" d="M100.25,50.25L100.25,50.25c0,27.61-22.39,50-50,50h0c-27.61,0-50-22.39-50-50v0c0-27.61,22.39-50,50-50h0
		C77.86,0.25,100.25,22.64,100.25,50.25z"/>
	<g>
		<path class="st1" d="M70.67,61.41c-5.47,1.29-11.46,1.5-16.74,1.69c-3.87,0.14-7.53,0.27-10,0.8c-5.13,1.11-9.06,4.21-9.1,4.24
			l-6.39,5.11l-2.02-7.92L19.89,39.4l-5.83,3.47l10.76,39.53c0,0,6-9,19.94-12.35c13.94-3.35,12.88,0.71,28.41-2.82
			c7.09-1.61,11.05-3.33,13.26-4.73L84.62,57C81.74,58.31,77.37,59.84,70.67,61.41z"/>
		<path class="st1" d="M78.04,18.11c-2.12,2.12-7.94,4.41-16.94,6.53s-20.12,1.06-26.64,2.47c-6.53,1.41-11.29,5.29-11.29,5.29
			l8.37,33.23c0,0,4.76-3.88,11.29-5.29c6.53-1.41,17.65-0.35,26.64-2.47c9-2.12,14.82-4.41,16.94-6.53L78.04,18.11z M57.75,53.43
			c-6.38,0-12.74-5.17-14.21-11.54c-1.47-6.38,2.5-11.54,8.88-11.54c6.38,0,12.74,5.17,14.21,11.54
			C68.1,48.26,64.12,53.43,57.75,53.43z"/>
		<g>
			<path class="st1" d="M51.44,46.33l0.52-1.54c0.11-0.32,0.38-0.47,0.71-0.26c0.07,0.04,1.5,0.87,2.63,1.22l-0.74-3.29
				c-1.93-0.71-4.61-2.15-5.17-4.56c-0.47-2.03,0.57-3.75,3.21-4.02l-0.15-0.65c-0.05-0.22,0.09-0.39,0.3-0.39h0.34
				c0.2,0,0.42,0.16,0.47,0.39l0.15,0.67c1.86,0.16,3.47,1.08,4.11,1.48c0.28,0.14,0.32,0.51,0.27,0.65l-0.78,1.7
				c-0.11,0.22-0.33,0.24-0.52,0.12c-0.16-0.06-1.4-0.81-2.45-1.2l0.66,2.86c1.73,0.63,4.76,1.99,5.4,4.75
				c0.48,2.09-0.75,3.93-3.38,4.18l0.49,2.11c0.05,0.2-0.1,0.37-0.3,0.37h-0.34c-0.2,0-0.42-0.16-0.47-0.37l-0.49-2.11
				c-2.27-0.16-3.73-1.12-4.25-1.54C51.42,46.7,51.32,46.62,51.44,46.33z M53.1,36.4c-0.63,0.08-0.99,0.55-0.87,1.05
				c0.14,0.59,0.56,1.1,1.48,1.58L53.1,36.4z M57.3,44.67c-0.15-0.63-0.65-1.22-1.47-1.7l0.68,2.96
				C57.11,45.77,57.44,45.3,57.3,44.67z"/>
		</g>
	</g>
</g>
</svg>
