<?xml version="1.0" encoding="utf-8"?>
<!-- Generator: Adobe Illustrator 24.3.0, SVG Export Plug-In . SVG Version: 6.00 Build 0)  -->
<svg version="1.1" id="Layer_1" xmlns="http://www.w3.org/2000/svg" xmlns:xlink="http://www.w3.org/1999/xlink" x="0px" y="0px"
	 viewBox="0 0 100.5 100.5" style="enable-background:new 0 0 100.5 100.5;" xml:space="preserve">
<style type="text/css">
	.st0{fill:#9D071C;}
	.st1{fill:#FFFFFF;}
</style>
<g>
	<path class="st0" d="M100.2,50.2L100.2,50.2c0,27.6-22.4,50-50,50l0,0c-27.6,0-50-22.4-50-50l0,0c0-27.6,22.4-50,50-50l0,0
		C77.9,0.2,100.2,22.6,100.2,50.2z"/>
	<g>
		<path class="st1" d="M70.7,61.4c-5.5,1.3-11.5,1.5-16.7,1.7c-3.9,0.1-7.5,0.3-10,0.8c-5.1,1.1-9.1,4.2-9.1,4.2l-6.4,5.1l-2-7.9
			l-6.5-25.9l-5.8,3.5l10.8,39.5c0,0,6-9,19.9-12.3s12.9,0.7,28.4-2.8c7.1-1.6,11.1-3.3,13.3-4.7L84.6,57
			C81.7,58.3,77.4,59.8,70.7,61.4z"/>
		<path class="st1" d="M78,18.1c-2.1,2.1-7.9,4.4-16.9,6.5S41,25.7,34.5,27.1c-6.5,1.4-11.3,5.3-11.3,5.3l8.4,33.2
			c0,0,4.8-3.9,11.3-5.3s17.6-0.3,26.6-2.5c9-2.1,14.8-4.4,16.9-6.5L78,18.1z M57.8,53.4c-6.4,0-12.7-5.2-14.2-11.5
			c-1.5-6.4,2.5-11.5,8.9-11.5s12.7,5.2,14.2,11.5C68.1,48.3,64.1,53.4,57.8,53.4z"/>
		<g>
			<path class="st1" d="M51.4,46.3l0.5-1.5c0.1-0.3,0.4-0.5,0.7-0.3c0.1,0,1.5,0.9,2.6,1.2l-0.7-3.3c-1.9-0.7-4.6-2.2-5.2-4.6
				c-0.5-2,0.6-3.8,3.2-4l-0.2-0.7c0-0.2,0.1-0.4,0.3-0.4h0.3c0.2,0,0.4,0.2,0.5,0.4l0.2,0.7c1.9,0.2,3.5,1.1,4.1,1.5
				c0.3,0.1,0.3,0.5,0.3,0.7l-0.8,1.7C57.2,38,57,38,56.8,37.8c-0.2-0.1-1.4-0.8-2.5-1.2l0.7,2.9c1.7,0.6,4.8,2,5.4,4.8
				c0.5,2.1-0.8,3.9-3.4,4.2l0.5,2.1c0,0.2-0.1,0.4-0.3,0.4h-0.3c-0.2,0-0.4-0.2-0.5-0.4l-0.5-2.1c-2.3-0.2-3.7-1.1-4.2-1.5
				C51.4,46.7,51.3,46.6,51.4,46.3z M53.1,36.4c-0.6,0.1-1,0.5-0.9,1c0.1,0.6,0.6,1.1,1.5,1.6L53.1,36.4z M57.3,44.7
				c-0.2-0.6-0.7-1.2-1.5-1.7l0.7,3C57.1,45.8,57.4,45.3,57.3,44.7z"/>
		</g>
	</g>
</g>
</svg>
