<?xml version="1.0" encoding="utf-8"?>
<!-- Generator: Adobe Illustrator 24.3.0, SVG Export Plug-In . SVG Version: 6.00 Build 0)  -->
<svg version="1.1" id="Layer_1" xmlns="http://www.w3.org/2000/svg" xmlns:xlink="http://www.w3.org/1999/xlink" x="0px" y="0px"
	 viewBox="0 0 100.5 100.5" style="enable-background:new 0 0 100.5 100.5;" xml:space="preserve">
<style type="text/css">
	.st0{fill:#9D071C;}
	.st1{fill:#FFFFFF;}
</style>
<g>
	<path class="st0" d="M100.2,50.2L100.2,50.2c0,27.6-22.4,50-50,50l0,0c-27.6,0-50-22.4-50-50l0,0c0-27.6,22.4-50,50-50l0,0
		C77.9,0.2,100.2,22.6,100.2,50.2z"/>
	<g>
		<g>
			<path class="st1" d="M55.6,75.4h-32V23.4h50.7v30c1.1,0.2,2.2,0.6,3.2,1V20.1H20.4v58.6h36.9C56.6,77.7,56,76.6,55.6,75.4z"/>
		</g>
		<path class="st1" d="M71,54.7c-8.2,0-14.8,6.7-14.8,14.9S62.8,84.4,71,84.4s14.8-6.7,14.8-14.8S79.2,54.7,71,54.7z M71,80.9
			c-6.3,0-11.4-5.1-11.4-11.4c0-6.3,5.1-11.4,11.4-11.4c6.3,0,11.4,5.1,11.4,11.4S77.2,80.9,71,80.9z"/>
		<g>
			<rect x="26.7" y="34.7" class="st1" width="44.2" height="3.3"/>
			<rect x="26.7" y="28.2" class="st1" width="44.2" height="3.3"/>
			<rect x="26.7" y="41.2" class="st1" width="44.2" height="3.3"/>
			<rect x="26.7" y="47.8" class="st1" width="44.2" height="3.3"/>
			<path class="st1" d="M57,60.8H26.7v3.3h28.7C55.8,63,56.3,61.8,57,60.8z"/>
			<path class="st1" d="M54.5,69.6c0-0.8,0.1-1.5,0.2-2.2H26.7v3.3h27.8C54.5,70.3,54.5,69.9,54.5,69.6z"/>
			<path class="st1" d="M64.7,54.3h-38v3.3h32.9C61.1,56.2,62.8,55.1,64.7,54.3z"/>
		</g>
		<path class="st1" d="M77.2,73.1L77.2,73.1c-0.2,0.4-0.8,0.6-1.2,0.3L71.8,71l-1.7-1v-9.7c0-0.5,0.4-0.8,0.8-0.8l0,0
			c0.5,0,0.8,0.4,0.8,0.8v8.8l5.2,3C77.3,72.3,77.5,72.7,77.2,73.1z"/>
	</g>
</g>
</svg>
