<?xml version="1.0" encoding="utf-8"?>
<!-- Generator: Adobe Illustrator 24.3.0, SVG Export Plug-In . SVG Version: 6.00 Build 0)  -->
<svg version="1.1" id="Layer_1" xmlns="http://www.w3.org/2000/svg" xmlns:xlink="http://www.w3.org/1999/xlink" x="0px" y="0px"
	 viewBox="0 0 100.5 100.5" style="enable-background:new 0 0 100.5 100.5;" xml:space="preserve">
<style type="text/css">
	.st0{fill:#EF383C;}
	.st1{fill:#FFFFFF;}
</style>
<g>
	<path class="st0" d="M100.25,50.25L100.25,50.25c0,27.61-22.39,50-50,50l0,0c-27.61,0-50-22.39-50-50l0,0c0-27.61,22.39-50,50-50
		l0,0C77.86,0.25,100.25,22.64,100.25,50.25z"/>
	<g>
		<g>
			<path class="st1" d="M55.57,75.45H23.59V23.39h50.72v29.99c1.11,0.23,2.18,0.57,3.2,1.01V20.11H20.39v58.62h36.88
				C56.58,77.71,56.01,76.61,55.57,75.45z"/>
		</g>
		<path class="st1" d="M70.97,54.7c-8.2,0-14.85,6.65-14.85,14.85S62.77,84.4,70.97,84.4s14.85-6.65,14.85-14.85
			S79.17,54.7,70.97,54.7z M70.97,80.9c-6.27,0-11.36-5.08-11.36-11.36c0-6.27,5.08-11.36,11.36-11.36
			c6.27,0,11.36,5.08,11.36,11.36S77.25,80.9,70.97,80.9z"/>
		<g>
			<rect x="26.73" y="34.72" class="st1" width="44.24" height="3.31"/>
			<rect x="26.73" y="28.2" class="st1" width="44.24" height="3.31"/>
			<rect x="26.73" y="41.24" class="st1" width="44.24" height="3.31"/>
			<rect x="26.73" y="47.77" class="st1" width="44.24" height="3.31"/>
			<path class="st1" d="M56.98,60.81H26.73v3.31h28.66C55.8,62.95,56.34,61.84,56.98,60.81z"/>
			<path class="st1" d="M54.47,69.55c0-0.75,0.06-1.49,0.15-2.21H26.73v3.31h27.78C54.49,70.28,54.47,69.92,54.47,69.55z"/>
			<path class="st1" d="M64.7,54.29H26.73v3.31h32.88C61.08,56.2,62.8,55.07,64.7,54.29z"/>
		</g>
		<path class="st1" d="M77.25,73.11L77.25,73.11c-0.24,0.42-0.78,0.57-1.2,0.32l-4.24-2.45l-1.66-0.96V60.3
			c0-0.46,0.37-0.83,0.83-0.83l0,0c0.46,0,0.83,0.37,0.83,0.83v8.76l5.16,2.98C77.34,72.27,77.46,72.74,77.25,73.11z"/>
	</g>
</g>
</svg>
