<?xml version="1.0" encoding="utf-8"?>
<!-- Generator: Adobe Illustrator 24.3.0, SVG Export Plug-In . SVG Version: 6.00 Build 0)  -->
<svg version="1.1" id="Layer_1" xmlns="http://www.w3.org/2000/svg" xmlns:xlink="http://www.w3.org/1999/xlink" x="0px" y="0px"
	 viewBox="0 0 100 100" style="enable-background:new 0 0 100 100;" xml:space="preserve">
<style type="text/css">
	.st0{fill:#FFFFFF;}
	.st1{fill:#BF2032;}
	.st2{fill:#212F64;}
	.st3{fill:none;}
	.st4{fill:#F6F7F7;}
	.st5{fill-rule:evenodd;clip-rule:evenodd;fill:#BF2032;}
</style>
<g>
	<circle class="st0" cx="50" cy="50" r="49.32"/>
	<g>
		<path class="st1" d="M91.84,50.23c-0.5,0.02-0.91,0.05-1.31,0.09l-0.03-0.78l0.8-0.08l0-0.02c-0.47-0.22-0.94-0.76-0.98-1.56
			c-0.03-0.67,0.33-1.73,1.99-1.79l2.89-0.12l0.04,0.88l-2.79,0.12c-0.78,0.03-1.42,0.35-1.38,1.18c0.02,0.58,0.45,1.01,0.95,1.14
			c0.11,0.04,0.26,0.05,0.41,0.04l2.91-0.12l0.04,0.88L91.84,50.23z"/>
		<path class="st1" d="M92.88,52.13c1.78,0.18,2.43,1.5,2.31,2.66c-0.14,1.3-1.2,2.21-2.72,2.05c-1.61-0.17-2.45-1.32-2.31-2.65
			C90.3,52.81,91.4,51.98,92.88,52.13z M92.53,55.96c1.05,0.11,1.91-0.41,2-1.27c0.09-0.84-0.63-1.54-1.72-1.66
			c-0.82-0.08-1.89,0.22-2,1.25S91.61,55.86,92.53,55.96z"/>
		<path class="st1" d="M88.15,58.59l1.36,0.31l0.28-1.23l0.65,0.15l-0.28,1.23l2.55,0.58c0.59,0.13,0.95,0.04,1.06-0.44
			c0.05-0.22,0.06-0.4,0.05-0.51l0.65,0.11c0.03,0.18,0.02,0.46-0.06,0.79c-0.09,0.4-0.29,0.69-0.57,0.84
			c-0.31,0.19-0.75,0.18-1.3,0.05l-2.57-0.58l-0.17,0.73l-0.65-0.15l0.17-0.73l-1.13-0.26L88.15,58.59z"/>
		<path class="st1" d="M91.7,65.45c0.24-0.19,0.56-0.57,0.7-0.99c0.2-0.61-0.01-0.99-0.39-1.12c-0.4-0.13-0.7,0.03-1.13,0.57
			c-0.57,0.73-1.16,0.96-1.71,0.78c-0.74-0.25-1.15-1.05-0.82-2.03c0.16-0.46,0.42-0.83,0.66-1.03l0.54,0.41
			c-0.17,0.14-0.44,0.42-0.58,0.85c-0.16,0.49,0.03,0.86,0.37,0.98c0.38,0.13,0.64-0.09,1.07-0.61c0.57-0.7,1.1-0.97,1.79-0.74
			c0.81,0.27,1.17,1.09,0.8,2.18c-0.17,0.5-0.45,0.93-0.74,1.19L91.7,65.45z"/>
		<path class="st1" d="M90.48,67.44c0.45,0.22,0.85,0.4,1.21,0.54l-0.34,0.7l-0.73-0.3L90.6,68.4c0.25,0.38,0.49,1.06,0.11,1.83
			c-0.33,0.68-1.11,1.32-2.64,0.58l-2.55-1.23l0.38-0.79l2.41,1.17c0.83,0.4,1.51,0.42,1.86-0.3c0.26-0.53,0.07-1.08-0.21-1.39
			c-0.09-0.1-0.23-0.2-0.37-0.27l-2.67-1.29l0.38-0.79L90.48,67.44z"/>
		<path class="st1" d="M86.74,72.29c1.48,1.01,1.43,2.47,0.77,3.44c-0.74,1.08-2.1,1.38-3.37,0.52c-1.34-0.91-1.53-2.32-0.77-3.43
			C84.15,71.66,85.51,71.45,86.74,72.29z M84.61,75.49c0.88,0.6,1.88,0.54,2.37-0.17c0.47-0.69,0.18-1.66-0.73-2.27
			c-0.68-0.46-1.77-0.71-2.35,0.15C83.31,74.06,83.85,74.97,84.61,75.49z"/>
		<path class="st1" d="M76.86,77.86l2.05,1.94l2.24-2.37l-2.05-1.94l0.6-0.64l4.9,4.63l-0.6,0.64l-2.3-2.17l-2.24,2.37l2.3,2.17
			l-0.6,0.63l-4.9-4.63L76.86,77.86z"/>
		<path class="st1" d="M73.61,84.88c-0.33-0.46-0.63-0.85-0.91-1.2l0.62-0.45l0.58,0.75l0.03-0.02c-0.2-0.66-0.01-1.3,0.47-1.64
			c0.08-0.06,0.14-0.09,0.22-0.12l0.48,0.67c-0.09,0.04-0.16,0.08-0.26,0.15c-0.5,0.36-0.59,1-0.3,1.61
			c0.05,0.11,0.12,0.23,0.21,0.36l1.5,2.1l-0.71,0.51L73.61,84.88z"/>
		<path class="st1" d="M69.75,88.45c0.6,1.03,1.5,1.08,2.27,0.65c0.55-0.31,0.83-0.59,1.05-0.87l0.44,0.48
			c-0.2,0.27-0.59,0.67-1.26,1.05c-1.3,0.73-2.56,0.31-3.27-0.97c-0.71-1.27-0.53-2.7,0.7-3.39c1.38-0.77,2.43,0.23,2.86,1.01
			c0.09,0.16,0.14,0.29,0.17,0.37L69.75,88.45z M71.69,86.64c-0.26-0.49-0.9-1.14-1.76-0.65c-0.78,0.44-0.72,1.34-0.48,1.91
			L71.69,86.64z"/>
		<path class="st1" d="M65.08,86.25l0.54,1.28l1.16-0.49l0.26,0.62l-1.16,0.49l1.01,2.41c0.23,0.55,0.52,0.8,0.97,0.61
			c0.21-0.09,0.36-0.18,0.45-0.25l0.29,0.59c-0.13,0.13-0.36,0.28-0.67,0.41c-0.38,0.16-0.73,0.17-1.02,0.03
			c-0.33-0.14-0.58-0.5-0.8-1.03l-1.02-2.43l-0.69,0.29l-0.26-0.62l0.69-0.29l-0.45-1.07L65.08,86.25z"/>
		<path class="st1" d="M63.6,93.45l-0.24-0.57l-0.03,0.01c-0.15,0.44-0.55,0.91-1.22,1.11c-0.94,0.28-1.62-0.24-1.81-0.91
			c-0.33-1.12,0.49-2.03,2.28-2.55l-0.03-0.1c-0.11-0.38-0.42-1.04-1.37-0.76c-0.43,0.13-0.84,0.39-1.11,0.7l-0.36-0.5
			c0.31-0.36,0.82-0.69,1.4-0.86c1.42-0.42,2.05,0.45,2.33,1.38l0.51,1.74c0.12,0.4,0.25,0.79,0.4,1.09L63.6,93.45z M62.77,91.12
			c-0.93,0.25-1.93,0.72-1.66,1.63c0.16,0.55,0.6,0.7,1.03,0.57c0.6-0.18,0.87-0.68,0.89-1.11c0-0.09-0.01-0.2-0.03-0.28
			L62.77,91.12z"/>
		<path class="st1" d="M55.14,93.01c0.2,1.17,1.03,1.54,1.9,1.41c0.62-0.1,0.98-0.26,1.29-0.45l0.24,0.6
			c-0.28,0.19-0.78,0.43-1.55,0.54c-1.47,0.23-2.5-0.6-2.73-2.05c-0.22-1.44,0.45-2.71,1.84-2.93c1.56-0.24,2.19,1.07,2.33,1.95
			c0.03,0.18,0.03,0.32,0.03,0.41L55.14,93.01z M57.59,91.99c-0.08-0.56-0.45-1.38-1.43-1.23c-0.88,0.14-1.14,1.01-1.11,1.62
			L57.59,91.99z"/>
		<path class="st1" d="M50.63,92.26c-0.02-0.57-0.05-1.06-0.1-1.51l0.77-0.03l0.07,0.95l0.04,0c0.19-0.66,0.7-1.09,1.29-1.12
			c0.1,0,0.17,0,0.25,0.02l0.03,0.83c-0.09-0.02-0.18-0.02-0.3-0.02c-0.62,0.03-1.04,0.51-1.13,1.18c-0.02,0.12-0.03,0.26-0.02,0.41
			l0.11,2.58l-0.87,0.04L50.63,92.26z"/>
		<path class="st1" d="M48.4,95.35c-0.4,0.11-1.19,0.27-2.09,0.19c-1.02-0.09-1.83-0.42-2.43-1.1c-0.53-0.61-0.81-1.54-0.72-2.58
			c0.18-2,1.69-3.35,3.94-3.15c0.78,0.07,1.37,0.29,1.65,0.45l-0.27,0.69c-0.34-0.19-0.78-0.36-1.46-0.42
			c-1.63-0.14-2.79,0.78-2.93,2.46c-0.15,1.7,0.79,2.8,2.35,2.93c0.57,0.05,0.96,0,1.17-0.08l0.17-2l-1.36-0.12l0.06-0.7l2.21,0.19
			L48.4,95.35z"/>
		<path class="st1" d="M36.75,93.73l1.13-4.01l-0.65-0.18l0.18-0.65l0.65,0.18l0.06-0.22c0.18-0.65,0.5-1.21,1-1.48
			c0.4-0.22,0.86-0.22,1.26-0.11c0.3,0.08,0.54,0.22,0.68,0.34l-0.3,0.62c-0.11-0.09-0.27-0.19-0.51-0.26
			c-0.72-0.2-1.08,0.38-1.28,1.09L38.9,89.3l1.13,0.32l-0.18,0.64l-1.13-0.32l-1.13,4.01L36.75,93.73z"/>
		<path class="st1" d="M35.56,90.83c-0.68,1.66-2.12,1.91-3.2,1.46c-1.21-0.5-1.78-1.77-1.2-3.18c0.61-1.5,1.96-1.97,3.2-1.47
			C35.63,88.17,36.12,89.46,35.56,90.83z M31.99,89.42c-0.4,0.98-0.14,1.95,0.65,2.28c0.78,0.32,1.66-0.17,2.07-1.18
			c0.31-0.76,0.33-1.88-0.64-2.27C33.12,87.85,32.33,88.57,31.99,89.42z"/>
		<path class="st1" d="M24.21,86.73c0.12,0.28,0.41,0.69,0.78,0.93c0.54,0.35,0.96,0.24,1.18-0.09c0.23-0.35,0.15-0.68-0.27-1.24
			c-0.56-0.73-0.64-1.36-0.33-1.85c0.43-0.65,1.3-0.85,2.17-0.28c0.41,0.27,0.69,0.62,0.83,0.9l-0.53,0.42
			c-0.09-0.2-0.3-0.53-0.68-0.77c-0.44-0.28-0.84-0.19-1.04,0.11c-0.22,0.34-0.07,0.64,0.32,1.19c0.53,0.73,0.66,1.31,0.27,1.92
			c-0.46,0.71-1.34,0.86-2.31,0.23c-0.44-0.29-0.78-0.67-0.96-1.02L24.21,86.73z"/>
		<path class="st1" d="M20.92,80.74c0.32-0.38,0.58-0.7,0.82-1.02l0.59,0.5l-0.48,0.64l0.02,0.01c0.48-0.19,1.2-0.18,1.81,0.34
			c0.51,0.43,1.04,1.41-0.03,2.68l-1.87,2.2l-0.67-0.57l1.8-2.13c0.5-0.59,0.7-1.28,0.07-1.81c-0.44-0.38-1.05-0.35-1.48-0.08
			c-0.1,0.06-0.21,0.16-0.31,0.27L19.31,84l-0.67-0.57L20.92,80.74z"/>
		<path class="st1" d="M16.34,81.09l0.41-0.46l-0.02-0.02c-0.46,0.05-1.06-0.11-1.52-0.63c-0.65-0.73-0.47-1.56,0.05-2.03
			c0.87-0.78,2.04-0.43,3.28,0.97l0.07-0.07c0.3-0.27,0.76-0.83,0.1-1.57c-0.3-0.34-0.72-0.59-1.11-0.7l0.3-0.54
			c0.46,0.13,0.97,0.45,1.38,0.9c0.99,1.1,0.47,2.05-0.25,2.69l-1.35,1.2c-0.31,0.28-0.61,0.57-0.81,0.83L16.34,81.09z M18.1,79.35
			c-0.62-0.73-1.48-1.43-2.18-0.8c-0.43,0.38-0.37,0.84-0.07,1.18c0.42,0.47,0.98,0.5,1.38,0.33c0.09-0.04,0.18-0.09,0.24-0.15
			L18.1,79.35z"/>
		<path class="st1" d="M12.61,76.52l3.9-2.86l0.52,0.71l-3.9,2.86L12.61,76.52z M18.19,73.65c-0.24,0.18-0.56,0.15-0.77-0.13
			c-0.18-0.25-0.12-0.57,0.12-0.75c0.25-0.18,0.58-0.14,0.77,0.12C18.51,73.16,18.44,73.47,18.19,73.65z"/>
		<path class="st1" d="M11.66,74.89c-0.22-0.14-0.62-0.49-0.95-1.05c-0.75-1.25-0.38-2.58,0.89-3.34c1.28-0.76,2.73-0.44,3.54,0.92
			c0.27,0.45,0.39,0.91,0.41,1.18l-0.69,0.18c-0.01-0.24-0.08-0.58-0.33-0.99c-0.57-0.95-1.58-1.05-2.45-0.53
			c-0.96,0.57-1.19,1.55-0.69,2.37c0.26,0.43,0.54,0.65,0.76,0.81L11.66,74.89z"/>
		<path class="st1" d="M8.32,69.16l4.37-2.08l0.38,0.79l-4.37,2.08L8.32,69.16z M14.34,67.38c-0.27,0.14-0.58,0.04-0.73-0.27
			c-0.13-0.28-0.01-0.58,0.26-0.71c0.28-0.13,0.6-0.03,0.73,0.26C14.74,66.95,14.61,67.25,14.34,67.38z"/>
		<path class="st1" d="M7.33,64.31c-0.07,0.3-0.08,0.8,0.08,1.21c0.22,0.6,0.63,0.77,1,0.63C8.8,66,8.93,65.69,8.93,64.99
			c-0.01-0.92,0.29-1.48,0.84-1.68c0.73-0.27,1.55,0.09,1.91,1.07c0.17,0.46,0.19,0.91,0.13,1.22l-0.68,0.02
			c0.05-0.22,0.07-0.6-0.08-1.03c-0.18-0.49-0.56-0.65-0.9-0.53c-0.37,0.14-0.44,0.47-0.45,1.15c-0.01,0.9-0.25,1.45-0.93,1.7
			c-0.8,0.3-1.59-0.11-1.99-1.19c-0.19-0.5-0.23-1-0.17-1.39L7.33,64.31z"/>
		<path class="st1" d="M9.79,58.38l-2.53,1.71c-0.29,0.18-0.63,0.39-0.89,0.54l0,0.02c0.3,0.02,0.69,0.03,1.05,0.06l2.99,0.26
			l0.22,0.9L6.97,61.4c-1.76-0.22-2.69-0.44-3.34-0.9c-0.47-0.33-0.72-0.71-0.81-0.92l0.67-0.39c0.12,0.2,0.33,0.45,0.6,0.65
			c0.24,0.19,0.64,0.4,1.13,0.49c0.1,0.02,0.17,0.03,0.22,0.02c0.05-0.01,0.11-0.05,0.21-0.11l3.91-2.79L9.79,58.38z"/>
		<path class="st1" d="M11.19,51.88l0.09,0.88l-3.01,0.31l0,0.02c0.26,0.11,0.5,0.31,0.68,0.56c0.18,0.24,0.31,0.54,0.34,0.87
			c0.07,0.65-0.23,1.72-1.89,1.89L4.55,56.7l-0.09-0.88l2.77-0.28c0.78-0.08,1.4-0.43,1.32-1.26c-0.06-0.57-0.5-0.97-0.99-1.08
			c-0.12-0.04-0.25-0.03-0.42-0.02l-2.9,0.3L4.13,52.6L11.19,51.88z"/>
		<path class="st1" d="M10.88,46.4c0.05,0.42,0.09,0.97,0.06,1.67c-0.04,0.86-0.26,1.48-0.64,1.87c-0.34,0.36-0.83,0.56-1.43,0.53
			c-0.61-0.03-1.08-0.23-1.42-0.58c-0.47-0.48-0.69-1.24-0.65-2.09c0.01-0.26,0.03-0.5,0.09-0.7l-2.7-0.11l0.04-0.87L10.88,46.4z
			 M7.59,47.13c-0.06,0.19-0.09,0.43-0.1,0.72c-0.04,1.05,0.44,1.71,1.37,1.75c0.89,0.04,1.35-0.57,1.39-1.53
			c0.02-0.38,0-0.67-0.04-0.82L7.59,47.13z"/>
	</g>
	<path id="path12313_3_" class="st2" d="M9.28,34.68c-0.15,0-0.27,0.12-0.27,0.27v1.43H7.58c-0.15,0-0.27,0.12-0.27,0.27v1.07
		c0,0.15,0.12,0.27,0.27,0.27h1.43v1.43c0,0.15,0.12,0.27,0.27,0.27h1.07c0.15,0,0.27-0.12,0.27-0.27v-1.43h1.43
		c0.15,0,0.27-0.12,0.27-0.27v-1.07c0-0.15-0.12-0.27-0.27-0.27h-1.43v-1.43c0-0.15-0.12-0.27-0.27-0.27H9.28z"/>
	<g>
		<g>
			<path class="st2" d="M11.19,25.53c0.31-0.59,0.72-1.27,1.23-1.97c0.92-1.26,1.88-1.94,2.87-2.13c1-0.2,2.04,0.03,3.14,0.83
				c1.11,0.81,1.76,1.82,1.92,2.92c0.17,1.1-0.26,2.4-1.23,3.72c-0.46,0.62-0.87,1.13-1.25,1.53L11.19,25.53z M17.84,29.07
				c0.2-0.19,0.45-0.51,0.7-0.85c1.38-1.87,1.08-3.66-0.76-5.01c-1.59-1.19-3.28-1.03-4.64,0.83c-0.33,0.45-0.54,0.83-0.66,1.09
				L17.84,29.07z"/>
			<path class="st2" d="M20.26,15.95c0.26,0.27,0.26,0.68-0.07,0.97c-0.29,0.26-0.69,0.22-0.94-0.06c-0.26-0.29-0.25-0.7,0.05-0.97
				C19.61,15.62,20,15.67,20.26,15.95z M24.54,22.53l-4.05-4.5l0.82-0.74l4.05,4.5L24.54,22.53z"/>
			<path class="st2" d="M26.2,15.84c-0.39-0.59-0.74-1.1-1.08-1.55l0.8-0.53l0.68,0.97l0.04-0.03c-0.22-0.83,0.05-1.62,0.67-2.03
				c0.1-0.07,0.18-0.11,0.28-0.14l0.57,0.87c-0.11,0.04-0.21,0.09-0.33,0.17c-0.65,0.43-0.78,1.22-0.45,1.99
				c0.06,0.14,0.14,0.3,0.24,0.46l1.77,2.69l-0.91,0.6L26.2,15.84z"/>
			<path class="st2" d="M33.2,13.35c0.59,1.37,1.7,1.57,2.72,1.15c0.73-0.3,1.12-0.61,1.43-0.93l0.47,0.66
				c-0.29,0.31-0.83,0.75-1.72,1.11c-1.72,0.71-3.22,0-3.91-1.69c-0.69-1.69-0.25-3.43,1.38-4.1c1.83-0.75,2.97,0.66,3.4,1.68
				c0.09,0.21,0.13,0.38,0.16,0.49L33.2,13.35z M35.89,11.39c-0.26-0.65-0.95-1.54-2.09-1.07c-1.03,0.42-1.09,1.56-0.88,2.29
				L35.89,11.39z"/>
			<path class="st2" d="M45.78,12.48c-0.26,0.2-0.85,0.51-1.65,0.65c-1.8,0.32-3.18-0.69-3.5-2.52c-0.32-1.83,0.7-3.39,2.64-3.73
				c0.64-0.11,1.23-0.05,1.56,0.04l-0.1,0.88c-0.28-0.1-0.71-0.17-1.31-0.06c-1.37,0.24-1.93,1.38-1.71,2.62
				c0.24,1.38,1.28,2.07,2.46,1.86c0.62-0.11,0.99-0.34,1.28-0.53L45.78,12.48z"/>
			<path class="st2" d="M50.81,4.77l-0.03,1.74l1.58,0.03l-0.01,0.84l-1.57-0.03l-0.05,3.26c-0.01,0.75,0.19,1.18,0.81,1.19
				c0.29,0,0.5-0.03,0.64-0.06l0.04,0.83c-0.21,0.08-0.55,0.14-0.98,0.13c-0.51-0.01-0.92-0.18-1.18-0.48
				c-0.31-0.33-0.41-0.87-0.4-1.58l0.05-3.3l-0.94-0.02l0.01-0.84l0.94,0.02l0.02-1.45L50.81,4.77z"/>
			<path class="st2" d="M66.02,15.68c-0.44,0.05-1.26-0.04-2.23-0.39c-2.23-0.82-3.39-2.84-2.44-5.44c0.91-2.48,3.2-3.54,5.66-2.64
				c0.99,0.36,1.53,0.8,1.75,1.04L68.2,9c-0.32-0.33-0.82-0.67-1.48-0.91c-1.85-0.68-3.52,0.05-4.28,2.13
				c-0.71,1.94-0.05,3.59,1.87,4.3c0.62,0.23,1.3,0.33,1.79,0.28L66.02,15.68z"/>
			<path class="st2" d="M71.6,19.37l0.35-0.68l-0.03-0.02c-0.54,0.21-1.32,0.21-2.04-0.26c-1.02-0.67-1.07-1.74-0.59-2.47
				c0.8-1.22,2.33-1.18,4.27,0.12l0.07-0.1c0.27-0.42,0.65-1.25-0.38-1.92c-0.47-0.31-1.06-0.49-1.56-0.49l0.19-0.74
				c0.6,0,1.32,0.22,1.96,0.64c1.55,1.02,1.23,2.32,0.56,3.33l-1.24,1.89c-0.29,0.44-0.55,0.88-0.71,1.27L71.6,19.37z M73.16,16.71
				c-0.99-0.68-2.24-1.25-2.89-0.27c-0.39,0.6-0.18,1.14,0.29,1.45c0.66,0.43,1.35,0.29,1.78-0.04c0.09-0.07,0.18-0.16,0.24-0.26
				L73.16,16.71z"/>
			<path class="st2" d="M78.21,19.39c0.5-0.51,0.92-0.96,1.28-1.39l0.69,0.67l-0.8,0.88l0.04,0.04c0.76-0.39,1.6-0.3,2.12,0.22
				c0.09,0.09,0.14,0.16,0.2,0.24l-0.72,0.74c-0.06-0.1-0.14-0.18-0.24-0.29c-0.56-0.54-1.36-0.5-2.04-0.02
				c-0.12,0.09-0.26,0.2-0.39,0.33l-2.25,2.31l-0.78-0.76L78.21,19.39z"/>
			<path class="st2" d="M82.15,25.69c-1.21,0.87-1.16,2-0.54,2.9c0.45,0.65,0.83,0.96,1.21,1.2l-0.54,0.6
				c-0.37-0.22-0.91-0.65-1.46-1.44c-1.07-1.53-0.7-3.14,0.8-4.18s3.29-0.98,4.3,0.46c1.13,1.62,0,3.04-0.91,3.68
				c-0.18,0.13-0.34,0.21-0.44,0.26L82.15,25.69z M84.64,27.88c0.58-0.39,1.3-1.26,0.59-2.27c-0.64-0.91-1.76-0.73-2.43-0.36
				L84.64,27.88z"/>
		</g>
		<g>
			<path class="st2" d="M50,0C22.39,0,0,22.39,0,50s22.39,50,50,50s50-22.39,50-50S77.61,0,50,0z M50,98.89
				C23,98.89,1.11,77,1.11,50S23,1.11,50,1.11S98.89,23,98.89,50S77,98.89,50,98.89z"/>
			<path class="st1" d="M50,15c-19.33,0-35,15.67-35,35c0,19.33,15.67,35,35,35c19.33,0,35-15.67,35-35C85,30.67,69.33,15,50,15z
				 M50,83.97c-18.76,0-33.97-15.21-33.97-33.97c0-18.76,15.21-33.97,33.97-33.97c18.76,0,33.97,15.21,33.97,33.97
				C83.97,68.76,68.76,83.97,50,83.97z"/>
		</g>
	</g>
	<path class="st3" d="M20.34,50.49c0,0.61,29.79,1.1,66.6,1.1"/>
	<path class="st3" d="M19.94,51.59c0-0.61,0.18-1.1,0.4-1.1"/>
	<g>
		<g id="Texas_vector_flag_2_">
			<path class="st4" d="M81.44,49.99H50.16V18.56C66.57,18.64,80,31.28,81.34,47.36C81.41,48.23,81.44,49.1,81.44,49.99z"/>
			<path class="st1" d="M50.16,50.04v31.41C67.45,81.36,81.44,67.31,81.44,50c0,0,0-0.01,0-0.01H50.16V50.04L50.16,50.04z"/>
			<path class="st5" d="M80.98,50.09h-0.52v-2.35h-0.89v-3.14h-0.46l-0.81,0.23v1.52l-0.28,0.28v0.31h-0.21l-0.03-0.02l-0.18-0.31
				h-0.2v0.33H77.1v-2.71l-0.12-0.13h-0.32v-0.18h-0.37v0.22h-0.23l-0.1,0.1v1.88h-0.2l-0.19,0.35v1.02h-0.18v-2.53h-0.82
				l-0.25-0.09v-1.35L74,42.86h-0.3l-0.37,0.82v4.62h-0.13v-0.18l-0.49,0.16v0.02h-0.56v-0.21H71.5v0.21h-0.14v-0.1H71.1v-4.97
				h-0.63l-1.11,0.23v1.51l-0.38,0.29v3.05h-0.23v-2.69l-0.11-0.07l-0.23-0.3h-0.28v0.69l-0.1,0.21v0.87h-0.12v1.29H67.7v-5.45
				l-0.18-0.13h-0.44v-0.17h-0.51v0.22h-0.31l-0.15,0.11v1.88h-0.27l-0.28,0.35v2.79h-0.25l-0.07-0.52h-0.3v-0.35h-0.53v-1.54H63.4
				l-0.54,0.18v2.35l-0.12,0.27v0.02h-0.23v-4.65l-0.38-0.68h-0.18l-0.4-0.51h-0.3l-0.4,0.51h-0.19l-0.41,0.57v1.82h-0.3v-4.59H58.8
				v0.2h-0.37v4.37l-0.25,0.09v0.19h-0.14v1.48h-0.19l-0.06-0.3h-0.22v-3.07l-0.33-0.29v-1.13l0.12-0.05v-0.34l-0.12-0.02
				l-0.05-0.83l-0.02,0.83l-0.12,0.04v0.31l0.11,0.08v1.06h-0.78v0.17h-0.3v4.32l-0.2-0.97h-0.29l-0.07-0.15h-0.24v-0.39h-0.18
				l-0.05-0.21h-0.49l-0.17,0.12h-0.24v0.82l-0.05,0.22v0.46h-0.24v-1.39l-0.84-0.91v-1.53l-0.25-1.2h-0.81l-0.12,0.56V42.1
				l-0.13-0.17h-1.18v6.18h-0.09l-0.06-0.14h-0.32L50,48.09h-0.33V45.6h-0.63l-1.11,0.24v1.51l-0.39,0.29v0.66h-0.22v-0.31
				l-0.1-0.07l-0.24-0.3H46.7v0.52h-0.43v-2.9l-0.18-0.13h-0.44v-0.17h-0.51v0.21h-0.32l-0.14,0.11v1.43h-0.31v0.49l-0.24,0.3v0.59
				h-0.61v1.29h-0.72v4.8h38.3v0C81.11,52.8,81.07,51.44,80.98,50.09z M60.42,48.31v-4.51l0.21-0.15l0.05,0.37v4.3H60.42z
				 M62.12,48.31v-4.3l0.05-0.37l0.21,0.15v4.51H62.12z M60.7,43.32v-0.21h0.03v0.22l0.06,0.08v-0.33h0.04v0.37l0.06,0.09v-0.52
				h0.03v0.56l0.06,0.08V43h-0.01v-0.05h0.01v-0.06h0.04v0.06h0.06v-0.21h0.04v0.21h0.06v-0.31h0.04v0.31h0.06v-0.4h0.04v0.4h0.16
				v-0.4h0.04v0.4h0.06v-0.31h0.03v0.31h0.06v-0.21h0.04v0.21h0.06v-0.06h0.04v0.06h0.07V43h-0.07v0.24h0.06v-0.22h0.04v0.66H62
				v-0.59h0.04v0.58l0.06-0.14v-0.41h0.04v0.33l0.03-0.08l0.28,0.36H62.4l-0.21-0.27l-0.14,0.31h-0.18l-0.2,0.38h-0.38
				c-0.16-0.2-0.4-0.49-0.6-0.73l-0.24,0.19l-0.05-0.05L60.7,43.32z M51.99,42.92h0.73l-0.01,0.07h-0.74L51.99,42.92z M51.97,43.08
				h0.73l0,0.07h-0.73L51.97,43.08z M51.95,43.23h0.73l0,0.07h-0.73L51.95,43.23z M51.94,43.4h0.73l0,0.07h-0.73L51.94,43.4z
				 M51.92,43.56h0.73l0,0.07h-0.73L51.92,43.56z M51.91,43.72h0.73l0,0.07H51.9L51.91,43.72z M51.89,43.89h0.73l0,0.07h-0.73
				L51.89,43.89z M51.88,44.05h0.73l0,0.07h-0.73L51.88,44.05z M51.86,44.22h0.74l-0.01,0.08h-0.74L51.86,44.22z M51.24,44.56h0.36
				v0.06h-0.36V44.56z M51.21,44.8h0.43v0.06h-0.43V44.8z M51.18,45.03h0.48v0.06h-0.48V45.03z M51.15,45.27h0.53v0.06h-0.53V45.27z
				 M61.9,43.3h-0.06v0.37h0.06V43.3z M61.8,43.3h-0.06v0.57l0.06-0.13V43.3z M61.8,43h-0.06v0.24h0.06V43z M61.69,43.95V43.3h-0.06
				v0.74h0.02L61.69,43.95z M61.69,43h-0.06v0.24h0.06V43z M61.6,43.3h-0.06v0.74h0.06V43.3z M61.6,43h-0.06v0.24h0.06V43z
				 M61.49,43.3h-0.16v0.75l0.16,0V43.3z M61.49,43h-0.16v0.24h0.16V43z M61.3,43.3h-0.06v0.65l0.06,0.08V43.3z M61.3,43h-0.06v0.24
				h0.06V43z M61.2,43.3h-0.06v0.52l0.06,0.08V43.3z M61.2,43h-0.06v0.24h0.06V43z M61.1,43.3h-0.06v0.4l0.06,0.08V43.3z M61.1,43
				h-0.06v0.24h0.06V43z M61.23,43.3v0.65l0.06,0.08V43.3H61.23z M61.23,43v0.24h0.06V43H61.23z M61.13,43.3v0.52l0.06,0.08v-0.6
				H61.13z M61.13,43v0.24h0.06V43H61.13z M61.03,43.3v0.4l0.06,0.08V43.3H61.03z M61.03,43v0.24h0.06V43H61.03z M61.33,43v0.24
				h0.16V43H61.33z M61.33,43.3v0.75l0.16,0V43.3H61.33z M61.53,43v0.24h0.06V43H61.53z M61.53,43.3v0.74h0.06V43.3H61.53z
				 M61.63,43v0.24h0.06V43H61.63z M61.63,43.3v0.74h0.02l0.05-0.1V43.3H61.63z M61.74,43v0.24h0.06V43H61.74z M61.74,43.3v0.57
				l0.06-0.13V43.3H61.74z M61.84,43.3v0.37h0.06V43.3H61.84z M61.84,43.3v0.37h0.06V43.3H61.84z M61.74,43.87l0.06-0.13V43.3h-0.06
				V43.87z M61.74,43.23h0.06V43h-0.06V43.23z M61.63,44.05h0.02l0.05-0.1V43.3h-0.06V44.05z M61.63,43.23h0.06V43h-0.06V43.23z
				 M61.53,44.05h0.06V43.3h-0.06V44.05z M61.53,43.23h0.06V43h-0.06V43.23z M61.33,44.05l0.16,0V43.3h-0.16V44.05z M61.33,43.23
				h0.16V43h-0.16V43.23z M61.23,43.96l0.06,0.08V43.3h-0.06V43.96z M61.23,43.23h0.06V43h-0.06V43.23z M61.13,43.83l0.06,0.08v-0.6
				h-0.06V43.83z M61.13,43.23h0.06V43h-0.06V43.23z M61.03,43.7l0.06,0.08V43.3h-0.06V43.7z M61.03,43.23h0.06V43h-0.06V43.23z"/>
			<path class="st2" d="M50,18.55c-17.37,0-31.45,14.08-31.45,31.45S32.63,81.44,50,81.44c0.05,0,0.11,0,0.16,0V18.56
				C50.11,18.56,50.05,18.55,50,18.55z M40.88,60.89l-7.08-4.9l-7.07,4.9l2.45-8.32L22,47.23h8.93l2.87-8.12l2.84,7.99l9.09,0.08
				l-7.22,5.26L40.88,60.89z"/>
			<polygon class="st0" points="45.73,47.19 36.64,47.1 33.8,39.11 30.93,47.23 22,47.23 29.18,52.57 26.73,60.89 33.8,55.99 
				40.88,60.89 38.51,52.45 45.73,47.19 			"/>
		</g>
	</g>
</g>
</svg>
